<?xml version="1.0" encoding="UTF-8" standalone="no"?>
<!DOCTYPE svg PUBLIC "-//W3C//DTD SVG 1.1//EN" "http://www.w3.org/Graphics/SVG/1.1/DTD/svg11.dtd">
<svg width="100%" height="100%" viewBox="0 0 145 46" version="1.1" xmlns="http://www.w3.org/2000/svg" xmlns:xlink="http://www.w3.org/1999/xlink" xml:space="preserve" xmlns:serif="http://www.serif.com/" style="fill-rule:evenodd;clip-rule:evenodd;stroke-linejoin:round;stroke-miterlimit:2;">
    <g transform="matrix(1,0,0,1,-294,-537)">
        <g transform="matrix(4.527113,0,0,4.527113,-5229.151076,-140.192281)">
            <g transform="matrix(14.137046,0,0,14.137046,1219.658906,159.52829)">
                <path d="M0.137,-0.366L0.433,-0.366L0.339,-0.7L0.538,-0.7L0.735,-0L0.535,-0L0.479,-0.199L0.29,-0.199L0.234,-0L0.035,-0L0.137,-0.366Z" style="fill:rgb(164,15,30);fill-rule:nonzero;"/>
            </g>
            <g transform="matrix(14.137046,0,0,14.137046,1230.544431,159.52829)">
                <path d="M0.055,-0L0.055,-0.23L0.238,-0.398L0.462,-0.398C0.492,-0.398 0.514,-0.405 0.529,-0.419C0.544,-0.433 0.551,-0.449 0.551,-0.466C0.551,-0.483 0.544,-0.499 0.529,-0.512C0.514,-0.526 0.492,-0.533 0.462,-0.533L0.195,-0.533L0.055,-0.7L0.491,-0.7C0.533,-0.7 0.57,-0.693 0.601,-0.679C0.632,-0.666 0.658,-0.648 0.679,-0.626C0.7,-0.604 0.716,-0.579 0.727,-0.551C0.737,-0.523 0.742,-0.494 0.742,-0.465C0.742,-0.443 0.739,-0.421 0.733,-0.401C0.727,-0.38 0.718,-0.359 0.707,-0.341C0.696,-0.322 0.681,-0.304 0.664,-0.289C0.647,-0.275 0.626,-0.262 0.603,-0.252L0.761,-0L0.569,-0L0.425,-0.231L0.247,-0.231L0.247,-0L0.055,-0Z" style="fill:rgb(164,15,30);fill-rule:nonzero;"/>
            </g>
            <g transform="matrix(14.137046,0,0,14.137046,1241.79752,159.52829)">
                <path d="M0.035,-0.7L0.723,-0.7L0.723,-0.533L0.48,-0.533L0.48,-0.177L0.288,-0L0.288,-0.533L0.035,-0.533L0.035,-0.7Z" style="fill:rgb(164,15,30);fill-rule:nonzero;"/>
            </g>
        </g>
    </g>
</svg>
