<?xml version="1.0" encoding="UTF-8" standalone="no"?>
<!DOCTYPE svg PUBLIC "-//W3C//DTD SVG 1.1//EN" "http://www.w3.org/Graphics/SVG/1.1/DTD/svg11.dtd">
<svg width="100%" height="100%" viewBox="0 0 197 48" version="1.1" xmlns="http://www.w3.org/2000/svg" xmlns:xlink="http://www.w3.org/1999/xlink" xml:space="preserve" xmlns:serif="http://www.serif.com/" style="fill-rule:evenodd;clip-rule:evenodd;stroke-linejoin:round;stroke-miterlimit:2;">
    <g transform="matrix(1,0,0,1,-294,-377)">
        <g transform="matrix(4.527113,0,0,4.527113,-5229.151076,-298.679758)">
            <g transform="matrix(14.137046,0,0,14.137046,1219.658906,159.52829)">
                <path d="M0.427,0.02C0.372,0.02 0.32,0.011 0.273,-0.007C0.225,-0.024 0.183,-0.049 0.148,-0.082C0.113,-0.115 0.085,-0.154 0.065,-0.199C0.045,-0.244 0.035,-0.295 0.035,-0.351C0.035,-0.406 0.045,-0.457 0.065,-0.502C0.085,-0.547 0.113,-0.586 0.148,-0.619C0.183,-0.651 0.225,-0.676 0.273,-0.694C0.321,-0.711 0.373,-0.72 0.428,-0.72C0.482,-0.72 0.533,-0.712 0.583,-0.695C0.632,-0.678 0.672,-0.654 0.705,-0.623L0.571,-0.501C0.555,-0.518 0.536,-0.53 0.514,-0.539C0.492,-0.549 0.467,-0.553 0.439,-0.553C0.41,-0.553 0.383,-0.548 0.358,-0.538C0.333,-0.529 0.31,-0.515 0.291,-0.497C0.272,-0.479 0.256,-0.458 0.245,-0.432C0.234,-0.408 0.228,-0.38 0.228,-0.35C0.228,-0.319 0.234,-0.292 0.245,-0.267C0.256,-0.242 0.272,-0.22 0.291,-0.203C0.31,-0.185 0.333,-0.171 0.358,-0.162C0.384,-0.152 0.411,-0.147 0.44,-0.147C0.447,-0.147 0.456,-0.147 0.466,-0.148C0.476,-0.149 0.486,-0.15 0.496,-0.151C0.506,-0.152 0.515,-0.154 0.524,-0.155C0.533,-0.157 0.541,-0.159 0.547,-0.162L0.547,-0.244L0.401,-0.412L0.74,-0.412L0.74,-0L0.603,-0C0.593,0.003 0.58,0.006 0.565,0.009C0.55,0.011 0.534,0.013 0.517,0.015C0.501,0.016 0.485,0.018 0.469,0.018C0.453,0.019 0.439,0.02 0.427,0.02Z" style="fill:rgb(164,15,30);fill-rule:nonzero;"/>
            </g>
            <g transform="matrix(14.137046,0,0,14.137046,1230.897857,159.52829)">
                <path d="M0.137,-0.366L0.433,-0.366L0.339,-0.7L0.538,-0.7L0.735,-0L0.535,-0L0.479,-0.199L0.29,-0.199L0.234,-0L0.035,-0L0.137,-0.366Z" style="fill:rgb(164,15,30);fill-rule:nonzero;"/>
            </g>
            <g transform="matrix(14.137046,0,0,14.137046,1241.783383,159.52829)">
                <path d="M0.055,-0.094L0.055,-0.7L0.286,-0.7L0.444,-0.412L0.601,-0.7L0.831,-0.7L0.831,-0L0.639,-0L0.639,-0.417L0.443,-0.063L0.248,-0.417L0.248,-0.271L0.055,-0.094Z" style="fill:rgb(164,15,30);fill-rule:nonzero;"/>
            </g>
            <g transform="matrix(14.137046,0,0,14.137046,1254.308806,159.52829)">
                <path d="M0.648,-0.7L0.648,-0.533L0.247,-0.533L0.247,-0.444L0.648,-0.444L0.469,-0.277L0.248,-0.277L0.248,-0.167L0.648,-0.167L0.648,-0L0.055,-0L0.055,-0.7L0.648,-0.7Z" style="fill:rgb(164,15,30);fill-rule:nonzero;"/>
            </g>
        </g>
    </g>
</svg>
