<?xml version="1.0" encoding="UTF-8" standalone="no"?>
<!DOCTYPE svg PUBLIC "-//W3C//DTD SVG 1.1//EN" "http://www.w3.org/Graphics/SVG/1.1/DTD/svg11.dtd">
<svg width="100%" height="100%" viewBox="0 0 481 49" version="1.1" xmlns="http://www.w3.org/2000/svg" xmlns:xlink="http://www.w3.org/1999/xlink" xml:space="preserve" xmlns:serif="http://www.serif.com/" style="fill-rule:evenodd;clip-rule:evenodd;stroke-linejoin:round;stroke-miterlimit:2;">
    <g transform="matrix(1,0,0,1,-294,-60)">
        <g transform="matrix(4.527113,0,0,4.527113,-5230.802149,-615.437632)">
            <g transform="matrix(14.137046,0,0,14.137046,1219.658906,159.52829)">
                <rect x="0.055" y="-0.7" width="0.192" height="0.7" style="fill:rgb(164,15,30);fill-rule:nonzero;"/>
            </g>
            <g transform="matrix(14.137046,0,0,14.137046,1223.928294,159.52829)">
                <path d="M0.248,-0.7L0.55,-0.286L0.55,-0.52L0.743,-0.7L0.743,-0L0.551,-0L0.551,-0.002L0.248,-0.417L0.248,-0L0.055,-0L0.055,-0.7L0.248,-0.7Z" style="fill:rgb(164,15,30);fill-rule:nonzero;"/>
            </g>
            <g transform="matrix(14.137046,0,0,14.137046,1235.209656,159.52829)">
                <path d="M0.248,-0.277L0.248,-0L0.055,-0L0.055,-0.7L0.648,-0.7L0.648,-0.533L0.247,-0.533L0.247,-0.444L0.648,-0.444L0.466,-0.277L0.248,-0.277Z" style="fill:rgb(164,15,30);fill-rule:nonzero;"/>
            </g>
            <g transform="matrix(14.137046,0,0,14.137046,1244.865259,159.52829)">
                <path d="M0.035,-0.351C0.035,-0.406 0.044,-0.457 0.061,-0.502C0.079,-0.547 0.104,-0.586 0.137,-0.619C0.169,-0.651 0.208,-0.676 0.253,-0.694C0.298,-0.711 0.349,-0.72 0.404,-0.72C0.46,-0.72 0.511,-0.711 0.556,-0.694C0.601,-0.676 0.64,-0.651 0.673,-0.619C0.706,-0.586 0.731,-0.547 0.749,-0.502C0.766,-0.457 0.775,-0.406 0.775,-0.351C0.775,-0.295 0.766,-0.244 0.749,-0.199C0.731,-0.154 0.706,-0.115 0.673,-0.082C0.64,-0.049 0.601,-0.024 0.556,-0.007C0.511,0.011 0.46,0.02 0.404,0.02C0.349,0.02 0.298,0.011 0.253,-0.007C0.208,-0.024 0.169,-0.049 0.137,-0.082C0.104,-0.115 0.079,-0.154 0.061,-0.199C0.044,-0.244 0.035,-0.295 0.035,-0.351ZM0.228,-0.35C0.228,-0.289 0.243,-0.24 0.273,-0.203C0.302,-0.166 0.346,-0.147 0.403,-0.147C0.432,-0.147 0.458,-0.152 0.48,-0.162C0.502,-0.171 0.521,-0.185 0.536,-0.203C0.551,-0.22 0.563,-0.242 0.571,-0.267C0.578,-0.292 0.582,-0.319 0.582,-0.35C0.582,-0.38 0.578,-0.408 0.571,-0.432C0.563,-0.458 0.551,-0.479 0.536,-0.497C0.521,-0.515 0.502,-0.529 0.48,-0.538C0.458,-0.548 0.432,-0.553 0.403,-0.553C0.346,-0.553 0.302,-0.534 0.273,-0.497C0.243,-0.46 0.228,-0.411 0.228,-0.35Z" style="fill:rgb(164,15,30);fill-rule:nonzero;"/>
            </g>
            <g transform="matrix(14.137046,0,0,14.137046,1256.316266,159.52829)">
                <path d="M0.055,-0L0.055,-0.23L0.238,-0.398L0.462,-0.398C0.492,-0.398 0.514,-0.405 0.529,-0.419C0.544,-0.433 0.551,-0.449 0.551,-0.466C0.551,-0.483 0.544,-0.499 0.529,-0.512C0.514,-0.526 0.492,-0.533 0.462,-0.533L0.195,-0.533L0.055,-0.7L0.491,-0.7C0.533,-0.7 0.57,-0.693 0.601,-0.679C0.632,-0.666 0.658,-0.648 0.679,-0.626C0.7,-0.604 0.716,-0.579 0.727,-0.551C0.737,-0.523 0.742,-0.494 0.742,-0.465C0.742,-0.443 0.739,-0.421 0.733,-0.401C0.727,-0.38 0.718,-0.359 0.707,-0.341C0.696,-0.322 0.681,-0.304 0.664,-0.289C0.647,-0.275 0.626,-0.262 0.603,-0.252L0.761,-0L0.569,-0L0.425,-0.231L0.247,-0.231L0.247,-0L0.055,-0Z" style="fill:rgb(164,15,30);fill-rule:nonzero;"/>
            </g>
            <g transform="matrix(14.137046,0,0,14.137046,1267.569355,159.52829)">
                <path d="M0.055,-0.094L0.055,-0.7L0.286,-0.7L0.444,-0.412L0.601,-0.7L0.831,-0.7L0.831,-0L0.639,-0L0.639,-0.417L0.443,-0.063L0.248,-0.417L0.248,-0.271L0.055,-0.094Z" style="fill:rgb(164,15,30);fill-rule:nonzero;"/>
            </g>
            <g transform="matrix(14.137046,0,0,14.137046,1280.094778,159.52829)">
                <path d="M0.137,-0.366L0.433,-0.366L0.339,-0.7L0.538,-0.7L0.735,-0L0.535,-0L0.479,-0.199L0.29,-0.199L0.234,-0L0.035,-0L0.137,-0.366Z" style="fill:rgb(164,15,30);fill-rule:nonzero;"/>
            </g>
            <g transform="matrix(14.137046,0,0,14.137046,1289.538324,159.52829)">
                <path d="M0.035,-0.7L0.723,-0.7L0.723,-0.533L0.48,-0.533L0.48,-0.177L0.288,-0L0.288,-0.533L0.035,-0.533L0.035,-0.7Z" style="fill:rgb(164,15,30);fill-rule:nonzero;"/>
            </g>
            <g transform="matrix(14.137046,0,0,14.137046,1300.254205,159.52829)">
                <rect x="0.055" y="-0.7" width="0.192" height="0.7" style="fill:rgb(164,15,30);fill-rule:nonzero;"/>
            </g>
            <g transform="matrix(14.137046,0,0,14.137046,1304.523593,159.52829)">
                <path d="M0.035,-0.351C0.035,-0.406 0.044,-0.457 0.061,-0.502C0.079,-0.547 0.104,-0.586 0.137,-0.619C0.169,-0.651 0.208,-0.676 0.253,-0.694C0.298,-0.711 0.349,-0.72 0.404,-0.72C0.46,-0.72 0.511,-0.711 0.556,-0.694C0.601,-0.676 0.64,-0.651 0.673,-0.619C0.706,-0.586 0.731,-0.547 0.749,-0.502C0.766,-0.457 0.775,-0.406 0.775,-0.351C0.775,-0.295 0.766,-0.244 0.749,-0.199C0.731,-0.154 0.706,-0.115 0.673,-0.082C0.64,-0.049 0.601,-0.024 0.556,-0.007C0.511,0.011 0.46,0.02 0.404,0.02C0.349,0.02 0.298,0.011 0.253,-0.007C0.208,-0.024 0.169,-0.049 0.137,-0.082C0.104,-0.115 0.079,-0.154 0.061,-0.199C0.044,-0.244 0.035,-0.295 0.035,-0.351ZM0.228,-0.35C0.228,-0.289 0.243,-0.24 0.273,-0.203C0.302,-0.166 0.346,-0.147 0.403,-0.147C0.432,-0.147 0.458,-0.152 0.48,-0.162C0.502,-0.171 0.521,-0.185 0.536,-0.203C0.551,-0.22 0.563,-0.242 0.571,-0.267C0.578,-0.292 0.582,-0.319 0.582,-0.35C0.582,-0.38 0.578,-0.408 0.571,-0.432C0.563,-0.458 0.551,-0.479 0.536,-0.497C0.521,-0.515 0.502,-0.529 0.48,-0.538C0.458,-0.548 0.432,-0.553 0.403,-0.553C0.346,-0.553 0.302,-0.534 0.273,-0.497C0.243,-0.46 0.228,-0.411 0.228,-0.35Z" style="fill:rgb(164,15,30);fill-rule:nonzero;"/>
            </g>
            <g transform="matrix(14.137046,0,0,14.137046,1315.974601,159.52829)">
                <path d="M0.248,-0.7L0.55,-0.286L0.55,-0.52L0.743,-0.7L0.743,-0L0.551,-0L0.551,-0.002L0.248,-0.417L0.248,-0L0.055,-0L0.055,-0.7L0.248,-0.7Z" style="fill:rgb(164,15,30);fill-rule:nonzero;"/>
            </g>
        </g>
    </g>
</svg>
