<?xml version="1.0" encoding="UTF-8" standalone="no"?>
<!DOCTYPE svg PUBLIC "-//W3C//DTD SVG 1.1//EN" "http://www.w3.org/Graphics/SVG/1.1/DTD/svg11.dtd">
<svg width="100%" height="100%" viewBox="0 0 159 46" version="1.1" xmlns="http://www.w3.org/2000/svg" xmlns:xlink="http://www.w3.org/1999/xlink" xml:space="preserve" xmlns:serif="http://www.serif.com/" style="fill-rule:evenodd;clip-rule:evenodd;stroke-linejoin:round;stroke-miterlimit:2;">
    <g transform="matrix(1,0,0,1,-294,-140)">
        <g transform="matrix(4.527113,0,0,4.527113,-5229.151076,-536.980603)">
            <g transform="matrix(14.137046,0,0,14.137046,1219.658906,159.52829)">
                <path d="M0.229,-0.7L0.229,-0.167L0.629,-0.167L0.629,-0L0.036,-0L0.036,-0.521L0.229,-0.7ZM0.035,-0.52L0.036,-0.521L0.035,-0.52Z" style="fill:rgb(164,15,30);fill-rule:nonzero;"/>
            </g>
            <g transform="matrix(14.137046,0,0,14.137046,1229.045904,159.52829)">
                <rect x="0.055" y="-0.7" width="0.192" height="0.7" style="fill:rgb(164,15,30);fill-rule:nonzero;"/>
            </g>
            <g transform="matrix(14.137046,0,0,14.137046,1233.315292,159.52829)">
                <path d="M0.248,-0.7L0.55,-0.286L0.55,-0.52L0.743,-0.7L0.743,-0L0.551,-0L0.551,-0.002L0.248,-0.417L0.248,-0L0.055,-0L0.055,-0.7L0.248,-0.7Z" style="fill:rgb(164,15,30);fill-rule:nonzero;"/>
            </g>
            <g transform="matrix(14.137046,0,0,14.137046,1244.596655,159.52829)">
                <path d="M0.055,-0L0.055,-0.7L0.248,-0.7L0.248,-0.404L0.488,-0.7L0.703,-0.7L0.477,-0.421L0.741,-0L0.545,-0L0.366,-0.285L0.248,-0.139L0.248,-0L0.055,-0Z" style="fill:rgb(164,15,30);fill-rule:nonzero;"/>
            </g>
        </g>
    </g>
</svg>
