<?xml version="1.0" encoding="UTF-8" standalone="no"?>
<!DOCTYPE svg PUBLIC "-//W3C//DTD SVG 1.1//EN" "http://www.w3.org/Graphics/SVG/1.1/DTD/svg11.dtd">
<svg width="100%" height="100%" viewBox="0 0 237 47" version="1.1" xmlns="http://www.w3.org/2000/svg" xmlns:xlink="http://www.w3.org/1999/xlink" xml:space="preserve" xmlns:serif="http://www.serif.com/" style="fill-rule:evenodd;clip-rule:evenodd;stroke-linejoin:round;stroke-miterlimit:2;">
    <g transform="matrix(1,0,0,1,-292.147603,-682.979202)">
        <g transform="matrix(10.967686,0,0,10.967686,-13102.928067,-1020.596965)">
            <g transform="matrix(5.835324,0,0,5.835324,1221.117737,159.52829)">
                <path d="M0.229,-0.7L0.229,-0.167L0.629,-0.167L0.629,-0L0.036,-0L0.036,-0.521L0.229,-0.7ZM0.035,-0.52L0.036,-0.521L0.035,-0.52Z" style="fill:rgb(164,15,30);fill-rule:nonzero;"/>
            </g>
            <g transform="matrix(5.835324,0,0,5.835324,1224.992392,159.52829)">
                <rect x="0.055" y="-0.7" width="0.192" height="0.7" style="fill:rgb(164,15,30);fill-rule:nonzero;"/>
            </g>
            <g transform="matrix(5.835324,0,0,5.835324,1226.75466,159.52829)">
                <path d="M0.035,-0.5L0.235,-0.5L0.329,-0.165L0.479,-0.7L0.679,-0.7L0.482,-0L0.176,-0L0.035,-0.5Z" style="fill:rgb(164,15,30);fill-rule:nonzero;"/>
            </g>
            <g transform="matrix(5.835324,0,0,5.835324,1230.629315,159.52829)">
                <path d="M0.648,-0.7L0.648,-0.533L0.247,-0.533L0.247,-0.444L0.648,-0.444L0.469,-0.277L0.248,-0.277L0.248,-0.167L0.648,-0.167L0.648,-0L0.055,-0L0.055,-0.7L0.648,-0.7Z" style="fill:rgb(164,15,30);fill-rule:nonzero;"/>
            </g>
            <g transform="matrix(5.835324,0,0,5.835324,1234.614841,159.52829)">
                <path d="M0.442,-0.167L0.641,-0.167L0.641,-0L0.035,-0L0.393,-0.409C0.404,-0.421 0.411,-0.433 0.415,-0.445C0.419,-0.456 0.421,-0.467 0.421,-0.476C0.421,-0.488 0.419,-0.499 0.414,-0.508C0.409,-0.517 0.403,-0.525 0.395,-0.532C0.387,-0.539 0.378,-0.545 0.368,-0.548C0.358,-0.552 0.348,-0.554 0.337,-0.554C0.322,-0.554 0.308,-0.551 0.293,-0.544C0.278,-0.538 0.264,-0.53 0.251,-0.52C0.238,-0.51 0.225,-0.499 0.213,-0.486C0.201,-0.473 0.191,-0.46 0.182,-0.447L0.051,-0.59C0.074,-0.616 0.098,-0.637 0.124,-0.654C0.151,-0.671 0.177,-0.684 0.205,-0.694C0.232,-0.704 0.258,-0.711 0.283,-0.715C0.308,-0.718 0.331,-0.72 0.352,-0.72C0.391,-0.72 0.428,-0.714 0.461,-0.703C0.494,-0.691 0.522,-0.675 0.546,-0.654C0.57,-0.634 0.589,-0.61 0.602,-0.583C0.615,-0.555 0.622,-0.525 0.622,-0.492C0.622,-0.427 0.594,-0.358 0.537,-0.287L0.442,-0.167Z" style="fill:rgb(164,15,30);fill-rule:nonzero;"/>
            </g>
            <g transform="matrix(5.835324,0,0,5.835324,1238.55952,159.52829)">
                <path d="M0.055,-0.323L0.238,-0.491L0.238,-0.162L0.364,-0.162C0.395,-0.162 0.421,-0.167 0.444,-0.178C0.467,-0.189 0.486,-0.203 0.501,-0.22C0.516,-0.237 0.528,-0.257 0.535,-0.28C0.543,-0.302 0.547,-0.324 0.547,-0.347C0.547,-0.37 0.543,-0.393 0.535,-0.416C0.528,-0.438 0.516,-0.458 0.501,-0.475C0.486,-0.492 0.467,-0.506 0.444,-0.517C0.421,-0.528 0.395,-0.533 0.364,-0.533L0.195,-0.533L0.055,-0.7L0.404,-0.7C0.46,-0.7 0.509,-0.69 0.551,-0.67C0.594,-0.65 0.629,-0.624 0.657,-0.591C0.685,-0.557 0.706,-0.52 0.72,-0.479C0.734,-0.437 0.741,-0.394 0.741,-0.35C0.741,-0.306 0.734,-0.263 0.72,-0.222C0.706,-0.18 0.685,-0.142 0.657,-0.11C0.629,-0.076 0.594,-0.05 0.551,-0.03C0.509,-0.01 0.46,-0 0.404,-0L0.055,-0L0.055,-0.323Z" style="fill:rgb(164,15,30);fill-rule:nonzero;"/>
            </g>
        </g>
    </g>
</svg>
