<?xml version="1.0" encoding="UTF-8" standalone="no"?>
<!DOCTYPE svg PUBLIC "-//W3C//DTD SVG 1.1//EN" "http://www.w3.org/Graphics/SVG/1.1/DTD/svg11.dtd">
<svg width="100%" height="100%" viewBox="0 0 212 49" version="1.1" xmlns="http://www.w3.org/2000/svg" xmlns:xlink="http://www.w3.org/1999/xlink" xml:space="preserve" xmlns:serif="http://www.serif.com/" style="fill-rule:evenodd;clip-rule:evenodd;stroke-linejoin:round;stroke-miterlimit:2;">
    <g transform="matrix(1,0,0,1,-295,-297)">
        <g transform="matrix(4.527113,0,0,4.527113,-5229.151076,-378.192172)">
            <g transform="matrix(14.137046,0,0,14.137046,1219.658906,159.52829)">
                <path d="M0.055,-0.094L0.055,-0.7L0.286,-0.7L0.444,-0.412L0.601,-0.7L0.831,-0.7L0.831,-0L0.639,-0L0.639,-0.417L0.443,-0.063L0.248,-0.417L0.248,-0.271L0.055,-0.094Z" style="fill:rgb(164,15,30);fill-rule:nonzero;"/>
            </g>
            <g transform="matrix(14.137046,0,0,14.137046,1232.184329,159.52829)">
                <path d="M0.743,-0.7L0.743,-0.317C0.743,-0.261 0.733,-0.212 0.714,-0.17C0.694,-0.128 0.668,-0.093 0.636,-0.065C0.603,-0.036 0.567,-0.015 0.525,-0.001C0.484,0.013 0.442,0.02 0.399,0.02C0.356,0.02 0.314,0.013 0.273,-0.001C0.232,-0.015 0.195,-0.036 0.163,-0.065C0.13,-0.093 0.104,-0.128 0.085,-0.17C0.065,-0.212 0.055,-0.261 0.055,-0.317L0.055,-0.7L0.247,-0.7L0.247,-0.33C0.247,-0.299 0.251,-0.273 0.26,-0.25C0.269,-0.227 0.28,-0.208 0.294,-0.193C0.309,-0.178 0.325,-0.166 0.344,-0.159C0.362,-0.151 0.38,-0.147 0.399,-0.147C0.418,-0.147 0.437,-0.151 0.455,-0.159C0.473,-0.166 0.489,-0.178 0.504,-0.193C0.518,-0.208 0.529,-0.227 0.538,-0.25C0.547,-0.273 0.551,-0.299 0.551,-0.33L0.551,-0.521L0.743,-0.7Z" style="fill:rgb(164,15,30);fill-rule:nonzero;"/>
            </g>
            <g transform="matrix(14.137046,0,0,14.137046,1243.465691,159.52829)">
                <path d="M0.369,-0.436C0.421,-0.436 0.465,-0.43 0.501,-0.417C0.537,-0.405 0.566,-0.389 0.589,-0.368C0.611,-0.347 0.627,-0.324 0.638,-0.298C0.648,-0.272 0.653,-0.245 0.653,-0.217C0.653,-0.188 0.648,-0.16 0.637,-0.132C0.626,-0.104 0.608,-0.079 0.583,-0.056C0.558,-0.033 0.526,-0.015 0.486,-0.001C0.446,0.013 0.397,0.02 0.34,0.02C0.312,0.02 0.285,0.017 0.259,0.011C0.233,0.006 0.209,-0.002 0.187,-0.011C0.165,-0.02 0.145,-0.031 0.128,-0.042C0.11,-0.053 0.095,-0.065 0.082,-0.077L0.216,-0.199C0.229,-0.184 0.247,-0.171 0.268,-0.162C0.289,-0.152 0.316,-0.147 0.347,-0.147C0.383,-0.147 0.411,-0.153 0.43,-0.165C0.45,-0.176 0.46,-0.189 0.46,-0.203C0.46,-0.218 0.449,-0.232 0.426,-0.245C0.403,-0.258 0.368,-0.264 0.319,-0.264C0.266,-0.264 0.222,-0.27 0.186,-0.283C0.15,-0.295 0.121,-0.311 0.099,-0.332C0.076,-0.352 0.06,-0.375 0.05,-0.402C0.04,-0.428 0.035,-0.455 0.035,-0.482C0.035,-0.511 0.041,-0.539 0.052,-0.568C0.062,-0.596 0.08,-0.621 0.105,-0.644C0.13,-0.667 0.162,-0.685 0.202,-0.699C0.242,-0.713 0.291,-0.72 0.348,-0.72C0.376,-0.72 0.403,-0.717 0.429,-0.712C0.455,-0.706 0.479,-0.698 0.501,-0.689C0.523,-0.68 0.543,-0.669 0.56,-0.658C0.578,-0.647 0.593,-0.635 0.606,-0.623L0.472,-0.501C0.459,-0.516 0.441,-0.529 0.42,-0.538C0.399,-0.548 0.372,-0.553 0.341,-0.553C0.305,-0.553 0.277,-0.547 0.258,-0.535C0.238,-0.524 0.228,-0.511 0.228,-0.497C0.228,-0.482 0.239,-0.468 0.262,-0.455C0.285,-0.442 0.32,-0.436 0.369,-0.436Z" style="fill:rgb(164,15,30);fill-rule:nonzero;"/>
            </g>
            <g transform="matrix(14.137046,0,0,14.137046,1253.191979,159.52829)">
                <rect x="0.055" y="-0.7" width="0.192" height="0.7" style="fill:rgb(164,15,30);fill-rule:nonzero;"/>
            </g>
            <g transform="matrix(14.137046,0,0,14.137046,1257.461367,159.52829)">
                <path d="M0.535,-0.501C0.519,-0.518 0.5,-0.53 0.478,-0.539C0.456,-0.549 0.431,-0.553 0.403,-0.553C0.374,-0.553 0.349,-0.548 0.327,-0.538C0.304,-0.529 0.285,-0.515 0.27,-0.497C0.255,-0.479 0.243,-0.458 0.235,-0.432C0.227,-0.408 0.223,-0.38 0.223,-0.35C0.223,-0.289 0.239,-0.24 0.27,-0.203C0.301,-0.166 0.346,-0.147 0.403,-0.147C0.433,-0.147 0.46,-0.152 0.483,-0.163C0.506,-0.173 0.526,-0.187 0.541,-0.206L0.66,-0.069C0.628,-0.04 0.59,-0.018 0.547,-0.003C0.504,0.012 0.456,0.02 0.404,0.02C0.349,0.02 0.298,0.011 0.253,-0.007C0.208,-0.024 0.169,-0.049 0.137,-0.082C0.104,-0.115 0.079,-0.154 0.061,-0.199C0.044,-0.244 0.035,-0.295 0.035,-0.351C0.035,-0.406 0.044,-0.457 0.061,-0.502C0.079,-0.547 0.104,-0.586 0.137,-0.619C0.169,-0.651 0.208,-0.676 0.254,-0.694C0.299,-0.711 0.35,-0.72 0.405,-0.72C0.459,-0.72 0.508,-0.712 0.553,-0.695C0.598,-0.678 0.636,-0.654 0.669,-0.623L0.535,-0.501Z" style="fill:rgb(164,15,30);fill-rule:nonzero;"/>
            </g>
        </g>
    </g>
</svg>
