<?xml version="1.0" encoding="UTF-8" standalone="no"?>
<!DOCTYPE svg PUBLIC "-//W3C//DTD SVG 1.1//EN" "http://www.w3.org/Graphics/SVG/1.1/DTD/svg11.dtd">
<svg width="100%" height="100%" viewBox="0 0 498 236" version="1.1" xmlns="http://www.w3.org/2000/svg" xmlns:xlink="http://www.w3.org/1999/xlink" xml:space="preserve" xmlns:serif="http://www.serif.com/" style="fill-rule:evenodd;clip-rule:evenodd;stroke-linejoin:round;stroke-miterlimit:2;">
    <g transform="matrix(1,0,0,1,-145.905128,-1918.101098)">
        <g transform="matrix(0.577805,0,0,0.577805,-190.879367,965.481824)">
            <g transform="matrix(1,0,0,1.052632,41.868548,-113.419467)">
                <rect x="541" y="1674" width="648" height="57" style="fill:rgb(4,1,3);"/>
            </g>
            <g transform="matrix(0.628446,0,0,0.628446,-41.883065,1105.463714)">
                <g transform="matrix(81.567568,0,0,81.567568,1014.717211,941.979571)">
                    <path d="M0.213,-0.754L0.395,-0.295L0.578,-0.754L0.791,-0.754L0.473,-0L0.317,-0L0,-0.754L0.213,-0.754Z" style="fill:rgb(150,255,0);fill-rule:nonzero;"/>
                </g>
                <g transform="matrix(81.567568,0,0,81.567568,1076.382292,941.979571)">
                    <path d="M0.25,-0.377C0.25,-0.347 0.256,-0.319 0.267,-0.294C0.278,-0.269 0.294,-0.247 0.313,-0.228C0.332,-0.209 0.355,-0.195 0.381,-0.184C0.406,-0.174 0.433,-0.169 0.462,-0.169C0.491,-0.169 0.518,-0.174 0.543,-0.184C0.569,-0.195 0.592,-0.209 0.612,-0.228C0.631,-0.247 0.647,-0.269 0.658,-0.294C0.669,-0.319 0.675,-0.347 0.675,-0.377C0.675,-0.407 0.669,-0.435 0.658,-0.46C0.647,-0.485 0.631,-0.507 0.612,-0.526C0.592,-0.545 0.569,-0.559 0.543,-0.57C0.518,-0.58 0.491,-0.585 0.462,-0.585C0.433,-0.585 0.406,-0.58 0.381,-0.57C0.355,-0.559 0.332,-0.545 0.313,-0.526C0.294,-0.507 0.278,-0.485 0.267,-0.46C0.256,-0.435 0.25,-0.407 0.25,-0.377ZM0.045,-0.377C0.045,-0.433 0.055,-0.485 0.076,-0.533C0.097,-0.582 0.125,-0.624 0.162,-0.66C0.199,-0.696 0.243,-0.724 0.293,-0.745C0.345,-0.765 0.401,-0.775 0.462,-0.775C0.523,-0.775 0.579,-0.765 0.63,-0.745C0.681,-0.724 0.725,-0.696 0.763,-0.66C0.8,-0.624 0.828,-0.582 0.849,-0.533C0.87,-0.485 0.88,-0.433 0.88,-0.377C0.88,-0.321 0.87,-0.269 0.849,-0.221C0.828,-0.172 0.8,-0.13 0.763,-0.094C0.725,-0.058 0.681,-0.03 0.63,-0.009C0.579,0.011 0.523,0.021 0.462,0.021C0.401,0.021 0.345,0.011 0.293,-0.009C0.243,-0.03 0.199,-0.058 0.162,-0.094C0.125,-0.13 0.097,-0.172 0.076,-0.221C0.055,-0.269 0.045,-0.321 0.045,-0.377Z" style="fill:rgb(150,255,0);fill-rule:nonzero;"/>
                </g>
                <g transform="matrix(81.567568,0,0,81.567568,1151.832292,941.979571)">
                    <path d="M0.622,-0.502C0.577,-0.557 0.521,-0.585 0.454,-0.585C0.425,-0.585 0.398,-0.58 0.372,-0.569C0.347,-0.558 0.326,-0.544 0.308,-0.525C0.29,-0.507 0.276,-0.485 0.266,-0.46C0.255,-0.435 0.25,-0.407 0.25,-0.378C0.25,-0.348 0.255,-0.32 0.266,-0.295C0.276,-0.27 0.29,-0.248 0.308,-0.229C0.327,-0.21 0.348,-0.196 0.373,-0.185C0.398,-0.174 0.424,-0.169 0.453,-0.169C0.516,-0.169 0.572,-0.196 0.622,-0.249L0.622,-0.017L0.602,-0.01C0.572,0.001 0.544,0.009 0.518,0.013C0.492,0.018 0.466,0.021 0.441,0.021C0.389,0.021 0.339,0.011 0.291,-0.009C0.244,-0.028 0.202,-0.056 0.166,-0.091C0.129,-0.127 0.1,-0.169 0.078,-0.218C0.056,-0.268 0.045,-0.321 0.045,-0.379C0.045,-0.437 0.056,-0.49 0.077,-0.538C0.099,-0.587 0.128,-0.628 0.165,-0.663C0.201,-0.699 0.243,-0.726 0.291,-0.746C0.339,-0.765 0.389,-0.775 0.442,-0.775C0.472,-0.775 0.501,-0.772 0.53,-0.766C0.559,-0.759 0.59,-0.749 0.622,-0.736L0.622,-0.502Z" style="fill:rgb(150,255,0);fill-rule:nonzero;"/>
                </g>
                <g transform="matrix(81.567568,0,0,81.567568,1207.706076,941.979571)">
                    <path d="M0.489,-0.28L0.401,-0.531L0.313,-0.28L0.489,-0.28ZM0.541,-0.131L0.261,-0.131L0.216,-0L0.007,-0L0.294,-0.754L0.508,-0.754L0.795,-0L0.586,-0L0.541,-0.131Z" style="fill:rgb(150,255,0);fill-rule:nonzero;"/>
                </g>
                <g transform="matrix(81.567568,0,0,81.567568,1273.123265,941.979571)">
                    <path d="M0.275,-0.754L0.275,-0.166L0.51,-0.166L0.51,-0L0.079,-0L0.079,-0.754L0.275,-0.754Z" style="fill:rgb(150,255,0);fill-rule:nonzero;"/>
                </g>
                <g transform="matrix(81.567568,0,0,81.567568,1315.293697,941.979571)">
                    <path d="M0.25,-0.377C0.25,-0.347 0.256,-0.319 0.267,-0.294C0.278,-0.269 0.294,-0.247 0.313,-0.228C0.332,-0.209 0.355,-0.195 0.381,-0.184C0.406,-0.174 0.433,-0.169 0.462,-0.169C0.491,-0.169 0.518,-0.174 0.543,-0.184C0.569,-0.195 0.592,-0.209 0.612,-0.228C0.631,-0.247 0.647,-0.269 0.658,-0.294C0.669,-0.319 0.675,-0.347 0.675,-0.377C0.675,-0.407 0.669,-0.435 0.658,-0.46C0.647,-0.485 0.631,-0.507 0.612,-0.526C0.592,-0.545 0.569,-0.559 0.543,-0.57C0.518,-0.58 0.491,-0.585 0.462,-0.585C0.433,-0.585 0.406,-0.58 0.381,-0.57C0.355,-0.559 0.332,-0.545 0.313,-0.526C0.294,-0.507 0.278,-0.485 0.267,-0.46C0.256,-0.435 0.25,-0.407 0.25,-0.377ZM0.045,-0.377C0.045,-0.433 0.055,-0.485 0.076,-0.533C0.097,-0.582 0.125,-0.624 0.162,-0.66C0.199,-0.696 0.243,-0.724 0.293,-0.745C0.345,-0.765 0.401,-0.775 0.462,-0.775C0.523,-0.775 0.579,-0.765 0.63,-0.745C0.681,-0.724 0.725,-0.696 0.763,-0.66C0.8,-0.624 0.828,-0.582 0.849,-0.533C0.87,-0.485 0.88,-0.433 0.88,-0.377C0.88,-0.321 0.87,-0.269 0.849,-0.221C0.828,-0.172 0.8,-0.13 0.763,-0.094C0.725,-0.058 0.681,-0.03 0.63,-0.009C0.579,0.011 0.523,0.021 0.462,0.021C0.401,0.021 0.345,0.011 0.293,-0.009C0.243,-0.03 0.199,-0.058 0.162,-0.094C0.125,-0.13 0.097,-0.172 0.076,-0.221C0.055,-0.269 0.045,-0.321 0.045,-0.377Z" style="fill:rgb(150,255,0);fill-rule:nonzero;"/>
                </g>
                <g transform="matrix(81.567568,0,0,81.567568,1390.743697,941.979571)">
                    <rect x="0.079" y="-0.754" width="0.196" height="0.754" style="fill:rgb(150,255,0);fill-rule:nonzero;"/>
                </g>
                <g transform="matrix(81.567568,0,0,81.567568,1419.618616,941.979571)">
                    <path d="M0.275,-0.166L0.32,-0.166C0.354,-0.166 0.384,-0.171 0.411,-0.182C0.438,-0.193 0.46,-0.207 0.479,-0.226C0.497,-0.245 0.511,-0.267 0.52,-0.292C0.53,-0.318 0.535,-0.346 0.535,-0.377C0.535,-0.407 0.53,-0.435 0.52,-0.461C0.51,-0.487 0.496,-0.509 0.478,-0.528C0.459,-0.547 0.437,-0.561 0.41,-0.572C0.383,-0.583 0.353,-0.588 0.32,-0.588L0.275,-0.588L0.275,-0.166ZM0.079,-0.754L0.369,-0.754C0.42,-0.754 0.468,-0.744 0.513,-0.723C0.558,-0.702 0.598,-0.675 0.632,-0.64C0.665,-0.606 0.692,-0.566 0.711,-0.52C0.73,-0.475 0.74,-0.427 0.74,-0.377C0.74,-0.328 0.731,-0.28 0.712,-0.235C0.693,-0.189 0.666,-0.149 0.633,-0.114C0.599,-0.079 0.559,-0.052 0.514,-0.031C0.47,-0.01 0.421,-0 0.369,-0L0.079,-0L0.079,-0.754Z" style="fill:rgb(150,255,0);fill-rule:nonzero;"/>
                </g>
                <g transform="matrix(81.567568,0,0,81.567568,1539.19667,941.979571)">
                    <path d="M0.275,-0.408L0.34,-0.408C0.412,-0.408 0.448,-0.439 0.448,-0.502C0.448,-0.565 0.412,-0.596 0.34,-0.596L0.275,-0.596L0.275,-0.408ZM0.275,-0L0.079,-0L0.079,-0.754L0.391,-0.754C0.476,-0.754 0.541,-0.732 0.586,-0.688C0.631,-0.644 0.653,-0.582 0.653,-0.502C0.653,-0.422 0.631,-0.36 0.586,-0.316C0.541,-0.272 0.476,-0.25 0.391,-0.25L0.275,-0.25L0.275,-0Z" style="fill:rgb(150,255,0);fill-rule:nonzero;"/>
                </g>
                <g transform="matrix(81.567568,0,0,81.567568,1594.499481,941.979571)">
                    <path d="M0.062,-0.513L0.243,-0.513L0.243,-0.429C0.262,-0.46 0.286,-0.483 0.314,-0.499C0.342,-0.516 0.375,-0.524 0.412,-0.524L0.427,-0.524C0.433,-0.524 0.44,-0.523 0.447,-0.522L0.447,-0.349C0.423,-0.361 0.397,-0.367 0.369,-0.367C0.327,-0.367 0.296,-0.354 0.275,-0.33C0.254,-0.304 0.243,-0.268 0.243,-0.22L0.243,-0L0.062,-0L0.062,-0.513Z" style="fill:rgb(150,255,0);fill-rule:nonzero;"/>
                </g>
                <g transform="matrix(81.567568,0,0,81.567568,1632.836238,941.979571)">
                    <path d="M0.233,-0.259C0.233,-0.242 0.236,-0.226 0.242,-0.211C0.249,-0.197 0.257,-0.185 0.268,-0.174C0.278,-0.163 0.29,-0.155 0.304,-0.149C0.319,-0.143 0.334,-0.14 0.35,-0.14C0.366,-0.14 0.381,-0.143 0.396,-0.149C0.41,-0.155 0.422,-0.163 0.432,-0.174C0.443,-0.185 0.451,-0.197 0.458,-0.211C0.464,-0.226 0.467,-0.241 0.467,-0.258C0.467,-0.274 0.464,-0.289 0.458,-0.303C0.451,-0.318 0.443,-0.33 0.432,-0.341C0.422,-0.352 0.41,-0.36 0.396,-0.366C0.381,-0.372 0.366,-0.375 0.35,-0.375C0.334,-0.375 0.319,-0.372 0.304,-0.366C0.29,-0.36 0.278,-0.352 0.268,-0.341C0.257,-0.33 0.249,-0.318 0.242,-0.304C0.236,-0.29 0.233,-0.275 0.233,-0.259ZM0.042,-0.261C0.042,-0.299 0.05,-0.335 0.065,-0.367C0.08,-0.401 0.102,-0.429 0.129,-0.454C0.156,-0.478 0.189,-0.497 0.227,-0.511C0.264,-0.525 0.305,-0.532 0.35,-0.532C0.394,-0.532 0.435,-0.525 0.473,-0.512C0.51,-0.498 0.543,-0.479 0.571,-0.455C0.598,-0.43 0.62,-0.401 0.635,-0.367C0.65,-0.334 0.658,-0.297 0.658,-0.256C0.658,-0.215 0.65,-0.178 0.635,-0.144C0.619,-0.111 0.597,-0.082 0.57,-0.058C0.543,-0.033 0.51,-0.014 0.472,-0.001C0.433,0.012 0.392,0.019 0.347,0.019C0.303,0.019 0.262,0.012 0.225,-0.001C0.188,-0.014 0.155,-0.033 0.129,-0.058C0.101,-0.083 0.08,-0.112 0.065,-0.146C0.05,-0.181 0.042,-0.219 0.042,-0.261Z" style="fill:rgb(150,255,0);fill-rule:nonzero;"/>
                </g>
                <g transform="matrix(81.567568,0,0,81.567568,1689.933535,941.979571)">
                    <path d="M0.23,-0.258C0.23,-0.241 0.233,-0.226 0.239,-0.211C0.245,-0.197 0.253,-0.185 0.264,-0.174C0.274,-0.163 0.286,-0.155 0.3,-0.149C0.315,-0.143 0.33,-0.14 0.347,-0.14C0.363,-0.14 0.378,-0.143 0.393,-0.149C0.407,-0.155 0.419,-0.163 0.429,-0.174C0.44,-0.185 0.448,-0.197 0.455,-0.211C0.461,-0.225 0.464,-0.24 0.464,-0.256C0.464,-0.272 0.461,-0.287 0.455,-0.301C0.448,-0.316 0.44,-0.328 0.429,-0.339C0.419,-0.35 0.407,-0.358 0.393,-0.364C0.378,-0.37 0.363,-0.373 0.347,-0.373C0.331,-0.373 0.316,-0.37 0.301,-0.364C0.287,-0.358 0.275,-0.35 0.265,-0.339C0.254,-0.328 0.246,-0.316 0.24,-0.302C0.233,-0.289 0.23,-0.274 0.23,-0.258ZM0.458,-0.83L0.64,-0.83L0.64,-0L0.458,-0L0.458,-0.057C0.419,-0.008 0.367,0.016 0.301,0.016C0.264,0.016 0.229,0.009 0.198,-0.005C0.167,-0.019 0.139,-0.038 0.116,-0.063C0.093,-0.088 0.074,-0.117 0.061,-0.15C0.049,-0.183 0.042,-0.219 0.042,-0.258C0.042,-0.295 0.048,-0.329 0.06,-0.362C0.073,-0.396 0.09,-0.424 0.113,-0.449C0.136,-0.474 0.163,-0.493 0.195,-0.508C0.226,-0.522 0.261,-0.529 0.299,-0.529C0.363,-0.529 0.416,-0.507 0.458,-0.462L0.458,-0.83Z" style="fill:rgb(150,255,0);fill-rule:nonzero;"/>
                </g>
                <g transform="matrix(81.567568,0,0,81.567568,1747.1124,941.979571)">
                    <path d="M0.243,-0.513L0.243,-0.224C0.243,-0.161 0.274,-0.129 0.335,-0.129C0.396,-0.129 0.427,-0.161 0.427,-0.224L0.427,-0.513L0.608,-0.513L0.608,-0.189C0.608,-0.12 0.585,-0.068 0.539,-0.033C0.494,0.002 0.426,0.019 0.335,0.019C0.244,0.019 0.176,0.002 0.131,-0.033C0.085,-0.068 0.062,-0.12 0.062,-0.189L0.062,-0.513L0.243,-0.513Z" style="fill:rgb(150,255,0);fill-rule:nonzero;"/>
                </g>
                <g transform="matrix(81.567568,0,0,81.567568,1801.681103,941.979571)">
                    <path d="M0.449,-0.347C0.418,-0.368 0.386,-0.379 0.354,-0.379C0.337,-0.379 0.321,-0.376 0.305,-0.37C0.291,-0.364 0.277,-0.355 0.266,-0.345C0.255,-0.334 0.246,-0.321 0.24,-0.305C0.233,-0.291 0.23,-0.274 0.23,-0.255C0.23,-0.237 0.233,-0.221 0.24,-0.206C0.246,-0.191 0.255,-0.177 0.266,-0.167C0.277,-0.155 0.29,-0.147 0.305,-0.141C0.32,-0.135 0.337,-0.132 0.354,-0.132C0.388,-0.132 0.42,-0.144 0.449,-0.167L0.449,-0.013C0.404,0.006 0.362,0.016 0.322,0.016C0.285,0.016 0.249,0.01 0.215,-0.003C0.182,-0.016 0.152,-0.034 0.127,-0.058C0.101,-0.081 0.08,-0.11 0.065,-0.143C0.05,-0.175 0.042,-0.212 0.042,-0.253C0.042,-0.294 0.049,-0.331 0.064,-0.364C0.079,-0.398 0.099,-0.427 0.124,-0.452C0.149,-0.476 0.179,-0.495 0.214,-0.509C0.25,-0.522 0.287,-0.529 0.327,-0.529C0.371,-0.529 0.412,-0.52 0.449,-0.501L0.449,-0.347Z" style="fill:rgb(150,255,0);fill-rule:nonzero;"/>
                </g>
                <g transform="matrix(81.567568,0,0,81.567568,1841.649211,941.979571)">
                    <path d="M0.437,-0.331C0.431,-0.356 0.419,-0.377 0.4,-0.392C0.381,-0.407 0.359,-0.415 0.332,-0.415C0.304,-0.415 0.281,-0.408 0.264,-0.393C0.246,-0.378 0.235,-0.358 0.23,-0.331L0.437,-0.331ZM0.225,-0.226C0.225,-0.148 0.262,-0.109 0.335,-0.109C0.374,-0.109 0.404,-0.125 0.424,-0.157L0.599,-0.157C0.564,-0.04 0.475,0.019 0.334,0.019C0.291,0.019 0.251,0.012 0.215,-0.001C0.179,-0.013 0.148,-0.032 0.122,-0.056C0.097,-0.08 0.077,-0.109 0.063,-0.142C0.049,-0.175 0.042,-0.213 0.042,-0.254C0.042,-0.297 0.049,-0.335 0.062,-0.369C0.075,-0.404 0.094,-0.433 0.119,-0.457C0.144,-0.481 0.173,-0.499 0.208,-0.512C0.244,-0.525 0.283,-0.532 0.327,-0.532C0.37,-0.532 0.409,-0.525 0.444,-0.512C0.479,-0.499 0.508,-0.481 0.532,-0.456C0.556,-0.431 0.574,-0.401 0.587,-0.365C0.6,-0.33 0.606,-0.29 0.606,-0.245L0.606,-0.226L0.225,-0.226Z" style="fill:rgb(150,255,0);fill-rule:nonzero;"/>
                </g>
                <g transform="matrix(81.567568,0,0,81.567568,1894.423427,941.979571)">
                    <path d="M0.062,-0.513L0.243,-0.513L0.243,-0.429C0.262,-0.46 0.286,-0.483 0.314,-0.499C0.342,-0.516 0.375,-0.524 0.412,-0.524L0.427,-0.524C0.433,-0.524 0.44,-0.523 0.447,-0.522L0.447,-0.349C0.423,-0.361 0.397,-0.367 0.369,-0.367C0.327,-0.367 0.296,-0.354 0.275,-0.33C0.254,-0.304 0.243,-0.268 0.243,-0.22L0.243,-0L0.062,-0L0.062,-0.513Z" style="fill:rgb(150,255,0);fill-rule:nonzero;"/>
                </g>
            </g>
            <g transform="matrix(0.58645,-0,0,1.267621,265.59896,-325.788937)">
                <rect x="541" y="1674" width="648" height="57" style="fill:rgb(4,1,3);"/>
            </g>
            <g transform="matrix(0.702418,-0,0,0.702418,-120.648534,1132.816409)">
                <g transform="matrix(81.567568,0,0,81.567568,1013.548624,1023.947562)">
                    <rect x="0.079" y="-0.754" width="0.196" height="0.754" style="fill:rgb(150,255,0);fill-rule:nonzero;"/>
                </g>
                <g transform="matrix(81.567568,0,0,81.567568,1042.423543,1023.947562)">
                    <rect x="0.062" y="-0.83" width="0.181" height="0.83" style="fill:rgb(150,255,0);fill-rule:nonzero;"/>
                </g>
                <g transform="matrix(81.567568,0,0,81.567568,1067.301651,1023.947562)">
                    <rect x="0.062" y="-0.83" width="0.181" height="0.83" style="fill:rgb(150,255,0);fill-rule:nonzero;"/>
                </g>
                <g transform="matrix(81.567568,0,0,81.567568,1092.17976,1023.947562)">
                    <path d="M0.243,-0.513L0.243,-0.224C0.243,-0.161 0.274,-0.129 0.335,-0.129C0.396,-0.129 0.427,-0.161 0.427,-0.224L0.427,-0.513L0.608,-0.513L0.608,-0.189C0.608,-0.12 0.585,-0.068 0.539,-0.033C0.494,0.002 0.426,0.019 0.335,0.019C0.244,0.019 0.176,0.002 0.131,-0.033C0.085,-0.068 0.062,-0.12 0.062,-0.189L0.062,-0.513L0.243,-0.513Z" style="fill:rgb(150,255,0);fill-rule:nonzero;"/>
                </g>
                <g transform="matrix(81.567568,0,0,81.567568,1146.748462,1023.947562)">
                    <path d="M0.402,-0.381C0.369,-0.398 0.336,-0.407 0.304,-0.407C0.287,-0.407 0.274,-0.404 0.264,-0.397C0.253,-0.39 0.248,-0.381 0.248,-0.37C0.248,-0.364 0.249,-0.359 0.251,-0.355C0.252,-0.352 0.256,-0.348 0.262,-0.345C0.267,-0.342 0.276,-0.339 0.287,-0.336C0.298,-0.333 0.312,-0.33 0.33,-0.326C0.38,-0.316 0.417,-0.298 0.442,-0.273C0.467,-0.247 0.479,-0.214 0.479,-0.174C0.479,-0.144 0.473,-0.117 0.461,-0.093C0.449,-0.069 0.432,-0.049 0.411,-0.033C0.39,-0.016 0.364,-0.004 0.334,0.005C0.304,0.014 0.271,0.019 0.235,0.019C0.166,0.019 0.097,-0.001 0.03,-0.04L0.096,-0.168C0.147,-0.133 0.195,-0.116 0.24,-0.116C0.257,-0.116 0.27,-0.12 0.281,-0.127C0.292,-0.134 0.297,-0.144 0.297,-0.155C0.297,-0.162 0.296,-0.167 0.294,-0.172C0.293,-0.176 0.289,-0.18 0.284,-0.183C0.279,-0.187 0.271,-0.191 0.261,-0.194C0.25,-0.197 0.237,-0.2 0.22,-0.203C0.164,-0.214 0.125,-0.231 0.103,-0.254C0.08,-0.276 0.069,-0.307 0.069,-0.346C0.069,-0.375 0.074,-0.401 0.085,-0.423C0.096,-0.447 0.111,-0.466 0.131,-0.482C0.151,-0.498 0.175,-0.51 0.204,-0.519C0.232,-0.528 0.263,-0.532 0.298,-0.532C0.355,-0.532 0.41,-0.521 0.463,-0.499L0.402,-0.381Z" style="fill:rgb(150,255,0);fill-rule:nonzero;"/>
                </g>
                <g transform="matrix(81.567568,0,0,81.567568,1189.4083,1023.947562)">
                    <path d="M0.264,-0.362L0.264,-0L0.083,-0L0.083,-0.362L0.023,-0.362L0.023,-0.513L0.083,-0.513L0.083,-0.667L0.264,-0.667L0.264,-0.513L0.367,-0.513L0.367,-0.362L0.264,-0.362Z" style="fill:rgb(150,255,0);fill-rule:nonzero;"/>
                </g>
                <g transform="matrix(81.567568,0,0,81.567568,1219.833003,1023.947562)">
                    <path d="M0.062,-0.513L0.243,-0.513L0.243,-0.429C0.262,-0.46 0.286,-0.483 0.314,-0.499C0.342,-0.516 0.375,-0.524 0.412,-0.524L0.427,-0.524C0.433,-0.524 0.44,-0.523 0.447,-0.522L0.447,-0.349C0.423,-0.361 0.397,-0.367 0.369,-0.367C0.327,-0.367 0.296,-0.354 0.275,-0.33C0.254,-0.304 0.243,-0.268 0.243,-0.22L0.243,-0L0.062,-0L0.062,-0.513Z" style="fill:rgb(150,255,0);fill-rule:nonzero;"/>
                </g>
                <g transform="matrix(81.567568,0,0,81.567568,1258.332895,1023.947562)">
                    <path d="M0.23,-0.258C0.23,-0.241 0.233,-0.226 0.239,-0.211C0.245,-0.197 0.253,-0.185 0.264,-0.174C0.274,-0.163 0.286,-0.155 0.3,-0.149C0.315,-0.143 0.33,-0.14 0.347,-0.14C0.363,-0.14 0.378,-0.143 0.393,-0.149C0.407,-0.155 0.419,-0.163 0.429,-0.174C0.44,-0.185 0.448,-0.197 0.455,-0.211C0.461,-0.225 0.464,-0.24 0.464,-0.256C0.464,-0.272 0.461,-0.287 0.455,-0.301C0.448,-0.316 0.44,-0.328 0.429,-0.339C0.419,-0.35 0.407,-0.358 0.393,-0.364C0.378,-0.37 0.363,-0.373 0.347,-0.373C0.33,-0.373 0.315,-0.37 0.3,-0.364C0.286,-0.358 0.274,-0.35 0.264,-0.339C0.253,-0.328 0.245,-0.316 0.239,-0.302C0.233,-0.289 0.23,-0.274 0.23,-0.258ZM0.458,-0.513L0.64,-0.513L0.64,-0L0.458,-0L0.458,-0.057C0.419,-0.008 0.367,0.016 0.301,0.016C0.264,0.016 0.229,0.009 0.198,-0.005C0.167,-0.018 0.139,-0.037 0.116,-0.062C0.093,-0.087 0.074,-0.116 0.061,-0.149C0.049,-0.182 0.042,-0.219 0.042,-0.258C0.042,-0.295 0.048,-0.329 0.061,-0.362C0.074,-0.396 0.091,-0.424 0.114,-0.449C0.137,-0.474 0.164,-0.493 0.195,-0.508C0.226,-0.522 0.261,-0.529 0.299,-0.529C0.363,-0.529 0.416,-0.507 0.458,-0.462L0.458,-0.513Z" style="fill:rgb(150,255,0);fill-rule:nonzero;"/>
                </g>
                <g transform="matrix(81.567568,0,0,81.567568,1315.51176,1023.947562)">
                    <path d="M0.264,-0.362L0.264,-0L0.083,-0L0.083,-0.362L0.023,-0.362L0.023,-0.513L0.083,-0.513L0.083,-0.667L0.264,-0.667L0.264,-0.513L0.367,-0.513L0.367,-0.362L0.264,-0.362Z" style="fill:rgb(150,255,0);fill-rule:nonzero;"/>
                </g>
                <g transform="matrix(81.567568,0,0,81.567568,1347.078408,1023.947562)">
                    <path d="M0.243,-0.513L0.243,-0L0.062,-0L0.062,-0.513L0.243,-0.513ZM0.05,-0.71C0.05,-0.724 0.053,-0.737 0.058,-0.75C0.063,-0.762 0.071,-0.773 0.08,-0.782C0.089,-0.791 0.1,-0.799 0.113,-0.804C0.125,-0.809 0.138,-0.812 0.152,-0.812C0.166,-0.812 0.179,-0.809 0.192,-0.804C0.204,-0.799 0.215,-0.791 0.224,-0.782C0.233,-0.773 0.241,-0.762 0.246,-0.75C0.251,-0.737 0.254,-0.724 0.254,-0.71C0.254,-0.696 0.251,-0.683 0.246,-0.67C0.241,-0.658 0.233,-0.647 0.224,-0.638C0.215,-0.629 0.204,-0.621 0.192,-0.616C0.179,-0.611 0.166,-0.608 0.152,-0.608C0.138,-0.608 0.125,-0.611 0.113,-0.616C0.1,-0.621 0.089,-0.629 0.08,-0.638C0.071,-0.647 0.063,-0.658 0.058,-0.67C0.053,-0.683 0.05,-0.696 0.05,-0.71Z" style="fill:rgb(150,255,0);fill-rule:nonzero;"/>
                </g>
                <g transform="matrix(81.567568,0,0,81.567568,1371.956516,1023.947562)">
                    <path d="M0.233,-0.259C0.233,-0.242 0.236,-0.226 0.242,-0.211C0.249,-0.197 0.257,-0.185 0.268,-0.174C0.278,-0.163 0.29,-0.155 0.304,-0.149C0.319,-0.143 0.334,-0.14 0.35,-0.14C0.366,-0.14 0.381,-0.143 0.396,-0.149C0.41,-0.155 0.422,-0.163 0.432,-0.174C0.443,-0.185 0.451,-0.197 0.458,-0.211C0.464,-0.226 0.467,-0.241 0.467,-0.258C0.467,-0.274 0.464,-0.289 0.458,-0.303C0.451,-0.318 0.443,-0.33 0.432,-0.341C0.422,-0.352 0.41,-0.36 0.396,-0.366C0.381,-0.372 0.366,-0.375 0.35,-0.375C0.334,-0.375 0.319,-0.372 0.304,-0.366C0.29,-0.36 0.278,-0.352 0.268,-0.341C0.257,-0.33 0.249,-0.318 0.242,-0.304C0.236,-0.29 0.233,-0.275 0.233,-0.259ZM0.042,-0.261C0.042,-0.299 0.05,-0.335 0.065,-0.367C0.08,-0.401 0.102,-0.429 0.129,-0.454C0.156,-0.478 0.189,-0.497 0.227,-0.511C0.264,-0.525 0.305,-0.532 0.35,-0.532C0.394,-0.532 0.435,-0.525 0.473,-0.512C0.51,-0.498 0.543,-0.479 0.571,-0.455C0.598,-0.43 0.62,-0.401 0.635,-0.367C0.65,-0.334 0.658,-0.297 0.658,-0.256C0.658,-0.215 0.65,-0.178 0.635,-0.144C0.619,-0.111 0.597,-0.082 0.57,-0.058C0.543,-0.033 0.51,-0.014 0.472,-0.001C0.433,0.012 0.392,0.019 0.347,0.019C0.303,0.019 0.262,0.012 0.225,-0.001C0.188,-0.014 0.155,-0.033 0.129,-0.058C0.101,-0.083 0.08,-0.112 0.065,-0.146C0.05,-0.181 0.042,-0.219 0.042,-0.261Z" style="fill:rgb(150,255,0);fill-rule:nonzero;"/>
                </g>
                <g transform="matrix(81.567568,0,0,81.567568,1429.053814,1023.947562)">
                    <path d="M0.062,-0.513L0.243,-0.513L0.243,-0.448C0.268,-0.478 0.293,-0.498 0.318,-0.509C0.343,-0.519 0.373,-0.524 0.407,-0.524C0.443,-0.524 0.474,-0.518 0.499,-0.507C0.525,-0.495 0.547,-0.478 0.565,-0.457C0.58,-0.44 0.59,-0.42 0.595,-0.399C0.6,-0.378 0.603,-0.353 0.603,-0.326L0.603,-0L0.422,-0L0.422,-0.259C0.422,-0.284 0.42,-0.305 0.416,-0.321C0.413,-0.336 0.406,-0.349 0.397,-0.358C0.389,-0.366 0.38,-0.372 0.37,-0.375C0.36,-0.378 0.349,-0.38 0.338,-0.38C0.307,-0.38 0.284,-0.371 0.268,-0.352C0.251,-0.334 0.243,-0.308 0.243,-0.274L0.243,-0L0.062,-0L0.062,-0.513Z" style="fill:rgb(150,255,0);fill-rule:nonzero;"/>
                </g>
            </g>
            <g transform="matrix(1.16821,0,0,1.265172,-49.132996,-401.512881)">
                <rect x="541" y="1674" width="648" height="57" style="fill:rgb(4,1,3);"/>
            </g>
            <g transform="matrix(0.628446,0,0,0.628446,591.762575,1767.353411)">
                <g transform="matrix(81.567568,0,0,81.567568,0,0)">
                    <rect x="0.079" y="-0.754" width="0.196" height="0.754" style="fill:rgb(150,255,0);fill-rule:nonzero;"/>
                </g>
                <g transform="matrix(81.567568,0,0,81.567568,28.874919,0)">
                    <path d="M0.062,-0.513L0.243,-0.513L0.243,-0.448C0.268,-0.478 0.293,-0.498 0.318,-0.509C0.343,-0.519 0.373,-0.524 0.407,-0.524C0.443,-0.524 0.474,-0.518 0.499,-0.507C0.525,-0.495 0.547,-0.478 0.565,-0.457C0.58,-0.44 0.59,-0.42 0.595,-0.399C0.6,-0.378 0.603,-0.353 0.603,-0.326L0.603,-0L0.422,-0L0.422,-0.259C0.422,-0.284 0.42,-0.305 0.416,-0.321C0.413,-0.336 0.406,-0.349 0.397,-0.358C0.389,-0.366 0.38,-0.372 0.37,-0.375C0.36,-0.378 0.349,-0.38 0.338,-0.38C0.307,-0.38 0.284,-0.371 0.268,-0.352C0.251,-0.334 0.243,-0.308 0.243,-0.274L0.243,-0L0.062,-0L0.062,-0.513Z" style="fill:rgb(150,255,0);fill-rule:nonzero;"/>
                </g>
                <g transform="matrix(81.567568,0,0,81.567568,83.035784,0)">
                    <path d="M0.23,-0.258C0.23,-0.241 0.233,-0.226 0.239,-0.211C0.245,-0.197 0.253,-0.185 0.264,-0.174C0.274,-0.163 0.286,-0.155 0.3,-0.149C0.315,-0.143 0.33,-0.14 0.347,-0.14C0.363,-0.14 0.378,-0.143 0.393,-0.149C0.407,-0.155 0.419,-0.163 0.429,-0.174C0.44,-0.185 0.448,-0.197 0.455,-0.211C0.461,-0.225 0.464,-0.24 0.464,-0.256C0.464,-0.272 0.461,-0.287 0.455,-0.301C0.448,-0.316 0.44,-0.328 0.429,-0.339C0.419,-0.35 0.407,-0.358 0.393,-0.364C0.378,-0.37 0.363,-0.373 0.347,-0.373C0.331,-0.373 0.316,-0.37 0.301,-0.364C0.287,-0.358 0.275,-0.35 0.265,-0.339C0.254,-0.328 0.246,-0.316 0.24,-0.302C0.233,-0.289 0.23,-0.274 0.23,-0.258ZM0.458,-0.83L0.64,-0.83L0.64,-0L0.458,-0L0.458,-0.057C0.419,-0.008 0.367,0.016 0.301,0.016C0.264,0.016 0.229,0.009 0.198,-0.005C0.167,-0.019 0.139,-0.038 0.116,-0.063C0.093,-0.088 0.074,-0.117 0.061,-0.15C0.049,-0.183 0.042,-0.219 0.042,-0.258C0.042,-0.295 0.048,-0.329 0.06,-0.362C0.073,-0.396 0.09,-0.424 0.113,-0.449C0.136,-0.474 0.163,-0.493 0.195,-0.508C0.226,-0.522 0.261,-0.529 0.299,-0.529C0.363,-0.529 0.416,-0.507 0.458,-0.462L0.458,-0.83Z" style="fill:rgb(150,255,0);fill-rule:nonzero;"/>
                </g>
                <g transform="matrix(81.567568,0,0,81.567568,140.214649,0)">
                    <path d="M0.243,-0.513L0.243,-0L0.062,-0L0.062,-0.513L0.243,-0.513ZM0.05,-0.71C0.05,-0.724 0.053,-0.737 0.058,-0.75C0.063,-0.762 0.071,-0.773 0.08,-0.782C0.089,-0.791 0.1,-0.799 0.113,-0.804C0.125,-0.809 0.138,-0.812 0.152,-0.812C0.166,-0.812 0.179,-0.809 0.192,-0.804C0.204,-0.799 0.215,-0.791 0.224,-0.782C0.233,-0.773 0.241,-0.762 0.246,-0.75C0.251,-0.737 0.254,-0.724 0.254,-0.71C0.254,-0.696 0.251,-0.683 0.246,-0.67C0.241,-0.658 0.233,-0.647 0.224,-0.638C0.215,-0.629 0.204,-0.621 0.192,-0.616C0.179,-0.611 0.166,-0.608 0.152,-0.608C0.138,-0.608 0.125,-0.611 0.113,-0.616C0.1,-0.621 0.089,-0.629 0.08,-0.638C0.071,-0.647 0.063,-0.658 0.058,-0.67C0.053,-0.683 0.05,-0.696 0.05,-0.71Z" style="fill:rgb(150,255,0);fill-rule:nonzero;"/>
                </g>
                <g transform="matrix(81.567568,0,0,81.567568,165.092757,0)">
                    <path d="M0.437,-0.331C0.431,-0.356 0.419,-0.377 0.4,-0.392C0.381,-0.407 0.359,-0.415 0.332,-0.415C0.304,-0.415 0.281,-0.408 0.264,-0.393C0.246,-0.378 0.235,-0.358 0.23,-0.331L0.437,-0.331ZM0.225,-0.226C0.225,-0.148 0.262,-0.109 0.335,-0.109C0.374,-0.109 0.404,-0.125 0.424,-0.157L0.599,-0.157C0.564,-0.04 0.475,0.019 0.334,0.019C0.291,0.019 0.251,0.012 0.215,-0.001C0.179,-0.013 0.148,-0.032 0.122,-0.056C0.097,-0.08 0.077,-0.109 0.063,-0.142C0.049,-0.175 0.042,-0.213 0.042,-0.254C0.042,-0.297 0.049,-0.335 0.062,-0.369C0.075,-0.404 0.094,-0.433 0.119,-0.457C0.144,-0.481 0.173,-0.499 0.208,-0.512C0.244,-0.525 0.283,-0.532 0.327,-0.532C0.37,-0.532 0.409,-0.525 0.444,-0.512C0.479,-0.499 0.508,-0.481 0.532,-0.456C0.556,-0.431 0.574,-0.401 0.587,-0.365C0.6,-0.33 0.606,-0.29 0.606,-0.245L0.606,-0.226L0.225,-0.226Z" style="fill:rgb(150,255,0);fill-rule:nonzero;"/>
                </g>
                <g transform="matrix(81.567568,0,0,81.567568,245.599946,0)">
                    <path d="M0.446,-0.422L0.835,-0.422C0.835,-0.382 0.833,-0.346 0.83,-0.313C0.827,-0.28 0.82,-0.25 0.81,-0.222C0.796,-0.183 0.777,-0.148 0.753,-0.118C0.729,-0.087 0.701,-0.062 0.668,-0.042C0.636,-0.021 0.601,-0.006 0.562,0.005C0.523,0.016 0.483,0.021 0.44,0.021C0.381,0.021 0.328,0.011 0.28,-0.008C0.231,-0.027 0.19,-0.054 0.155,-0.089C0.12,-0.125 0.093,-0.167 0.074,-0.215C0.055,-0.265 0.045,-0.319 0.045,-0.378C0.045,-0.437 0.054,-0.49 0.073,-0.539C0.093,-0.588 0.12,-0.63 0.154,-0.665C0.19,-0.7 0.232,-0.727 0.281,-0.746C0.33,-0.765 0.385,-0.775 0.446,-0.775C0.525,-0.775 0.594,-0.758 0.653,-0.724C0.712,-0.69 0.759,-0.637 0.794,-0.566L0.608,-0.489C0.591,-0.53 0.568,-0.56 0.54,-0.578C0.513,-0.596 0.481,-0.605 0.446,-0.605C0.417,-0.605 0.39,-0.6 0.366,-0.589C0.342,-0.578 0.322,-0.562 0.304,-0.541C0.288,-0.521 0.274,-0.497 0.265,-0.468C0.255,-0.439 0.25,-0.407 0.25,-0.372C0.25,-0.34 0.254,-0.31 0.263,-0.283C0.271,-0.256 0.283,-0.232 0.3,-0.212C0.317,-0.192 0.337,-0.176 0.362,-0.166C0.387,-0.154 0.415,-0.149 0.448,-0.149C0.467,-0.149 0.486,-0.151 0.504,-0.155C0.522,-0.16 0.538,-0.167 0.552,-0.176C0.567,-0.186 0.579,-0.199 0.588,-0.214C0.597,-0.229 0.604,-0.248 0.607,-0.27L0.446,-0.27L0.446,-0.422Z" style="fill:rgb(150,255,0);fill-rule:nonzero;"/>
                </g>
                <g transform="matrix(81.567568,0,0,81.567568,317.379405,0)">
                    <path d="M0.23,-0.258C0.23,-0.241 0.233,-0.226 0.239,-0.211C0.245,-0.197 0.253,-0.185 0.264,-0.174C0.274,-0.163 0.286,-0.155 0.3,-0.149C0.315,-0.143 0.33,-0.14 0.347,-0.14C0.363,-0.14 0.378,-0.143 0.393,-0.149C0.407,-0.155 0.419,-0.163 0.429,-0.174C0.44,-0.185 0.448,-0.197 0.455,-0.211C0.461,-0.225 0.464,-0.24 0.464,-0.256C0.464,-0.272 0.461,-0.287 0.455,-0.301C0.448,-0.316 0.44,-0.328 0.429,-0.339C0.419,-0.35 0.407,-0.358 0.393,-0.364C0.378,-0.37 0.363,-0.373 0.347,-0.373C0.33,-0.373 0.315,-0.37 0.3,-0.364C0.286,-0.358 0.274,-0.35 0.264,-0.339C0.253,-0.328 0.245,-0.316 0.239,-0.302C0.233,-0.289 0.23,-0.274 0.23,-0.258ZM0.458,-0.513L0.64,-0.513L0.64,-0L0.458,-0L0.458,-0.057C0.419,-0.008 0.367,0.016 0.301,0.016C0.264,0.016 0.229,0.009 0.198,-0.005C0.167,-0.018 0.139,-0.037 0.116,-0.062C0.093,-0.087 0.074,-0.116 0.061,-0.149C0.049,-0.182 0.042,-0.219 0.042,-0.258C0.042,-0.295 0.048,-0.329 0.061,-0.362C0.074,-0.396 0.091,-0.424 0.114,-0.449C0.137,-0.474 0.164,-0.493 0.195,-0.508C0.226,-0.522 0.261,-0.529 0.299,-0.529C0.363,-0.529 0.416,-0.507 0.458,-0.462L0.458,-0.513Z" style="fill:rgb(150,255,0);fill-rule:nonzero;"/>
                </g>
                <g transform="matrix(81.567568,0,0,81.567568,374.55827,0)">
                    <path d="M0.062,-0.513L0.243,-0.513L0.243,-0.45C0.292,-0.497 0.348,-0.521 0.409,-0.521C0.485,-0.521 0.543,-0.489 0.583,-0.425C0.624,-0.49 0.682,-0.522 0.757,-0.522C0.781,-0.522 0.804,-0.519 0.825,-0.512C0.846,-0.505 0.865,-0.494 0.88,-0.479C0.895,-0.464 0.908,-0.444 0.916,-0.42C0.925,-0.396 0.93,-0.367 0.93,-0.333L0.93,-0L0.749,-0L0.749,-0.253C0.749,-0.279 0.747,-0.3 0.744,-0.317C0.74,-0.334 0.735,-0.347 0.728,-0.356C0.721,-0.365 0.712,-0.372 0.703,-0.375C0.694,-0.378 0.684,-0.38 0.673,-0.38C0.615,-0.38 0.586,-0.338 0.586,-0.253L0.586,-0L0.405,-0L0.405,-0.253C0.405,-0.279 0.403,-0.3 0.4,-0.318C0.397,-0.335 0.392,-0.348 0.386,-0.358C0.379,-0.368 0.371,-0.375 0.361,-0.379C0.351,-0.382 0.339,-0.384 0.326,-0.384C0.315,-0.384 0.304,-0.382 0.294,-0.379C0.284,-0.376 0.275,-0.369 0.268,-0.359C0.26,-0.35 0.254,-0.337 0.249,-0.32C0.245,-0.302 0.243,-0.28 0.243,-0.253L0.243,-0L0.062,-0L0.062,-0.513Z" style="fill:rgb(150,255,0);fill-rule:nonzero;"/>
                </g>
                <g transform="matrix(81.567568,0,0,81.567568,455.473297,0)">
                    <path d="M0.437,-0.331C0.431,-0.356 0.419,-0.377 0.4,-0.392C0.381,-0.407 0.359,-0.415 0.332,-0.415C0.304,-0.415 0.281,-0.408 0.264,-0.393C0.246,-0.378 0.235,-0.358 0.23,-0.331L0.437,-0.331ZM0.225,-0.226C0.225,-0.148 0.262,-0.109 0.335,-0.109C0.374,-0.109 0.404,-0.125 0.424,-0.157L0.599,-0.157C0.564,-0.04 0.475,0.019 0.334,0.019C0.291,0.019 0.251,0.012 0.215,-0.001C0.179,-0.013 0.148,-0.032 0.122,-0.056C0.097,-0.08 0.077,-0.109 0.063,-0.142C0.049,-0.175 0.042,-0.213 0.042,-0.254C0.042,-0.297 0.049,-0.335 0.062,-0.369C0.075,-0.404 0.094,-0.433 0.119,-0.457C0.144,-0.481 0.173,-0.499 0.208,-0.512C0.244,-0.525 0.283,-0.532 0.327,-0.532C0.37,-0.532 0.409,-0.525 0.444,-0.512C0.479,-0.499 0.508,-0.481 0.532,-0.456C0.556,-0.431 0.574,-0.401 0.587,-0.365C0.6,-0.33 0.606,-0.29 0.606,-0.245L0.606,-0.226L0.225,-0.226Z" style="fill:rgb(150,255,0);fill-rule:nonzero;"/>
                </g>
                <g transform="matrix(81.567568,0,0,81.567568,535.980486,0)">
                    <path d="M0.275,-0.166L0.32,-0.166C0.354,-0.166 0.384,-0.171 0.411,-0.182C0.438,-0.193 0.46,-0.207 0.479,-0.226C0.497,-0.245 0.511,-0.267 0.52,-0.292C0.53,-0.318 0.535,-0.346 0.535,-0.377C0.535,-0.407 0.53,-0.435 0.52,-0.461C0.51,-0.487 0.496,-0.509 0.478,-0.528C0.459,-0.547 0.437,-0.561 0.41,-0.572C0.383,-0.583 0.353,-0.588 0.32,-0.588L0.275,-0.588L0.275,-0.166ZM0.079,-0.754L0.369,-0.754C0.42,-0.754 0.468,-0.744 0.513,-0.723C0.558,-0.702 0.598,-0.675 0.632,-0.64C0.665,-0.606 0.692,-0.566 0.711,-0.52C0.73,-0.475 0.74,-0.427 0.74,-0.377C0.74,-0.328 0.731,-0.28 0.712,-0.235C0.693,-0.189 0.666,-0.149 0.633,-0.114C0.599,-0.079 0.559,-0.052 0.514,-0.031C0.47,-0.01 0.421,-0 0.369,-0L0.079,-0L0.079,-0.754Z" style="fill:rgb(150,255,0);fill-rule:nonzero;"/>
                </g>
                <g transform="matrix(81.567568,0,0,81.567568,600.092595,0)">
                    <path d="M0.437,-0.331C0.431,-0.356 0.419,-0.377 0.4,-0.392C0.381,-0.407 0.359,-0.415 0.332,-0.415C0.304,-0.415 0.281,-0.408 0.264,-0.393C0.246,-0.378 0.235,-0.358 0.23,-0.331L0.437,-0.331ZM0.225,-0.226C0.225,-0.148 0.262,-0.109 0.335,-0.109C0.374,-0.109 0.404,-0.125 0.424,-0.157L0.599,-0.157C0.564,-0.04 0.475,0.019 0.334,0.019C0.291,0.019 0.251,0.012 0.215,-0.001C0.179,-0.013 0.148,-0.032 0.122,-0.056C0.097,-0.08 0.077,-0.109 0.063,-0.142C0.049,-0.175 0.042,-0.213 0.042,-0.254C0.042,-0.297 0.049,-0.335 0.062,-0.369C0.075,-0.404 0.094,-0.433 0.119,-0.457C0.144,-0.481 0.173,-0.499 0.208,-0.512C0.244,-0.525 0.283,-0.532 0.327,-0.532C0.37,-0.532 0.409,-0.525 0.444,-0.512C0.479,-0.499 0.508,-0.481 0.532,-0.456C0.556,-0.431 0.574,-0.401 0.587,-0.365C0.6,-0.33 0.606,-0.29 0.606,-0.245L0.606,-0.226L0.225,-0.226Z" style="fill:rgb(150,255,0);fill-rule:nonzero;"/>
                </g>
                <g transform="matrix(81.567568,0,0,81.567568,650.909189,0)">
                    <path d="M0.204,-0.513L0.326,-0.25L0.45,-0.513L0.652,-0.513L0.385,-0L0.264,-0L0,-0.513L0.204,-0.513Z" style="fill:rgb(150,255,0);fill-rule:nonzero;"/>
                </g>
                <g transform="matrix(81.567568,0,0,81.567568,702.133622,0)">
                    <path d="M0.437,-0.331C0.431,-0.356 0.419,-0.377 0.4,-0.392C0.381,-0.407 0.359,-0.415 0.332,-0.415C0.304,-0.415 0.281,-0.408 0.264,-0.393C0.246,-0.378 0.235,-0.358 0.23,-0.331L0.437,-0.331ZM0.225,-0.226C0.225,-0.148 0.262,-0.109 0.335,-0.109C0.374,-0.109 0.404,-0.125 0.424,-0.157L0.599,-0.157C0.564,-0.04 0.475,0.019 0.334,0.019C0.291,0.019 0.251,0.012 0.215,-0.001C0.179,-0.013 0.148,-0.032 0.122,-0.056C0.097,-0.08 0.077,-0.109 0.063,-0.142C0.049,-0.175 0.042,-0.213 0.042,-0.254C0.042,-0.297 0.049,-0.335 0.062,-0.369C0.075,-0.404 0.094,-0.433 0.119,-0.457C0.144,-0.481 0.173,-0.499 0.208,-0.512C0.244,-0.525 0.283,-0.532 0.327,-0.532C0.37,-0.532 0.409,-0.525 0.444,-0.512C0.479,-0.499 0.508,-0.481 0.532,-0.456C0.556,-0.431 0.574,-0.401 0.587,-0.365C0.6,-0.33 0.606,-0.29 0.606,-0.245L0.606,-0.226L0.225,-0.226Z" style="fill:rgb(150,255,0);fill-rule:nonzero;"/>
                </g>
                <g transform="matrix(81.567568,0,0,81.567568,754.907838,0)">
                    <rect x="0.062" y="-0.83" width="0.181" height="0.83" style="fill:rgb(150,255,0);fill-rule:nonzero;"/>
                </g>
                <g transform="matrix(81.567568,0,0,81.567568,779.785946,0)">
                    <path d="M0.233,-0.259C0.233,-0.242 0.236,-0.226 0.242,-0.211C0.249,-0.197 0.257,-0.185 0.268,-0.174C0.278,-0.163 0.29,-0.155 0.304,-0.149C0.319,-0.143 0.334,-0.14 0.35,-0.14C0.366,-0.14 0.381,-0.143 0.396,-0.149C0.41,-0.155 0.422,-0.163 0.432,-0.174C0.443,-0.185 0.451,-0.197 0.458,-0.211C0.464,-0.226 0.467,-0.241 0.467,-0.258C0.467,-0.274 0.464,-0.289 0.458,-0.303C0.451,-0.318 0.443,-0.33 0.432,-0.341C0.422,-0.352 0.41,-0.36 0.396,-0.366C0.381,-0.372 0.366,-0.375 0.35,-0.375C0.334,-0.375 0.319,-0.372 0.304,-0.366C0.29,-0.36 0.278,-0.352 0.268,-0.341C0.257,-0.33 0.249,-0.318 0.242,-0.304C0.236,-0.29 0.233,-0.275 0.233,-0.259ZM0.042,-0.261C0.042,-0.299 0.05,-0.335 0.065,-0.367C0.08,-0.401 0.102,-0.429 0.129,-0.454C0.156,-0.478 0.189,-0.497 0.227,-0.511C0.264,-0.525 0.305,-0.532 0.35,-0.532C0.394,-0.532 0.435,-0.525 0.473,-0.512C0.51,-0.498 0.543,-0.479 0.571,-0.455C0.598,-0.43 0.62,-0.401 0.635,-0.367C0.65,-0.334 0.658,-0.297 0.658,-0.256C0.658,-0.215 0.65,-0.178 0.635,-0.144C0.619,-0.111 0.597,-0.082 0.57,-0.058C0.543,-0.033 0.51,-0.014 0.472,-0.001C0.433,0.012 0.392,0.019 0.347,0.019C0.303,0.019 0.262,0.012 0.225,-0.001C0.188,-0.014 0.155,-0.033 0.129,-0.058C0.101,-0.083 0.08,-0.112 0.065,-0.146C0.05,-0.181 0.042,-0.219 0.042,-0.261Z" style="fill:rgb(150,255,0);fill-rule:nonzero;"/>
                </g>
                <g transform="matrix(81.567568,0,0,81.567568,836.883243,0)">
                    <path d="M0.471,-0.255C0.471,-0.271 0.468,-0.286 0.463,-0.3C0.457,-0.315 0.449,-0.327 0.438,-0.338C0.427,-0.349 0.415,-0.357 0.401,-0.363C0.386,-0.37 0.371,-0.373 0.354,-0.373C0.338,-0.373 0.323,-0.37 0.309,-0.364C0.295,-0.358 0.283,-0.35 0.273,-0.339C0.262,-0.328 0.254,-0.316 0.247,-0.301C0.241,-0.287 0.238,-0.272 0.238,-0.256C0.238,-0.24 0.241,-0.225 0.247,-0.211C0.253,-0.197 0.261,-0.185 0.272,-0.175C0.283,-0.164 0.295,-0.156 0.309,-0.149C0.324,-0.143 0.339,-0.14 0.355,-0.14C0.371,-0.14 0.386,-0.143 0.4,-0.149C0.414,-0.155 0.426,-0.163 0.436,-0.174C0.447,-0.185 0.455,-0.197 0.462,-0.211C0.468,-0.225 0.471,-0.24 0.471,-0.255ZM0.243,0.256L0.062,0.256L0.062,-0.513L0.243,-0.513L0.243,-0.456C0.282,-0.505 0.334,-0.529 0.401,-0.529C0.438,-0.529 0.472,-0.522 0.504,-0.508C0.535,-0.493 0.563,-0.474 0.586,-0.449C0.609,-0.424 0.627,-0.395 0.64,-0.362C0.654,-0.329 0.66,-0.293 0.66,-0.255C0.66,-0.217 0.654,-0.182 0.64,-0.149C0.627,-0.116 0.61,-0.088 0.587,-0.063C0.564,-0.038 0.536,-0.019 0.505,-0.005C0.474,0.009 0.44,0.016 0.403,0.016C0.339,0.016 0.286,-0.006 0.243,-0.05L0.243,0.256Z" style="fill:rgb(150,255,0);fill-rule:nonzero;"/>
                </g>
                <g transform="matrix(81.567568,0,0,81.567568,894.062108,0)">
                    <path d="M0.062,-0.513L0.243,-0.513L0.243,-0.45C0.292,-0.497 0.348,-0.521 0.409,-0.521C0.485,-0.521 0.543,-0.489 0.583,-0.425C0.624,-0.49 0.682,-0.522 0.757,-0.522C0.781,-0.522 0.804,-0.519 0.825,-0.512C0.846,-0.505 0.865,-0.494 0.88,-0.479C0.895,-0.464 0.908,-0.444 0.916,-0.42C0.925,-0.396 0.93,-0.367 0.93,-0.333L0.93,-0L0.749,-0L0.749,-0.253C0.749,-0.279 0.747,-0.3 0.744,-0.317C0.74,-0.334 0.735,-0.347 0.728,-0.356C0.721,-0.365 0.712,-0.372 0.703,-0.375C0.694,-0.378 0.684,-0.38 0.673,-0.38C0.615,-0.38 0.586,-0.338 0.586,-0.253L0.586,-0L0.405,-0L0.405,-0.253C0.405,-0.279 0.403,-0.3 0.4,-0.318C0.397,-0.335 0.392,-0.348 0.386,-0.358C0.379,-0.368 0.371,-0.375 0.361,-0.379C0.351,-0.382 0.339,-0.384 0.326,-0.384C0.315,-0.384 0.304,-0.382 0.294,-0.379C0.284,-0.376 0.275,-0.369 0.268,-0.359C0.26,-0.35 0.254,-0.337 0.249,-0.32C0.245,-0.302 0.243,-0.28 0.243,-0.253L0.243,-0L0.062,-0L0.062,-0.513Z" style="fill:rgb(150,255,0);fill-rule:nonzero;"/>
                </g>
                <g transform="matrix(81.567568,0,0,81.567568,974.977135,0)">
                    <path d="M0.437,-0.331C0.431,-0.356 0.419,-0.377 0.4,-0.392C0.381,-0.407 0.359,-0.415 0.332,-0.415C0.304,-0.415 0.281,-0.408 0.264,-0.393C0.246,-0.378 0.235,-0.358 0.23,-0.331L0.437,-0.331ZM0.225,-0.226C0.225,-0.148 0.262,-0.109 0.335,-0.109C0.374,-0.109 0.404,-0.125 0.424,-0.157L0.599,-0.157C0.564,-0.04 0.475,0.019 0.334,0.019C0.291,0.019 0.251,0.012 0.215,-0.001C0.179,-0.013 0.148,-0.032 0.122,-0.056C0.097,-0.08 0.077,-0.109 0.063,-0.142C0.049,-0.175 0.042,-0.213 0.042,-0.254C0.042,-0.297 0.049,-0.335 0.062,-0.369C0.075,-0.404 0.094,-0.433 0.119,-0.457C0.144,-0.481 0.173,-0.499 0.208,-0.512C0.244,-0.525 0.283,-0.532 0.327,-0.532C0.37,-0.532 0.409,-0.525 0.444,-0.512C0.479,-0.499 0.508,-0.481 0.532,-0.456C0.556,-0.431 0.574,-0.401 0.587,-0.365C0.6,-0.33 0.606,-0.29 0.606,-0.245L0.606,-0.226L0.225,-0.226Z" style="fill:rgb(150,255,0);fill-rule:nonzero;"/>
                </g>
                <g transform="matrix(81.567568,0,0,81.567568,1027.751351,0)">
                    <path d="M0.062,-0.513L0.243,-0.513L0.243,-0.448C0.268,-0.478 0.293,-0.498 0.318,-0.509C0.343,-0.519 0.373,-0.524 0.407,-0.524C0.443,-0.524 0.474,-0.518 0.499,-0.507C0.525,-0.495 0.547,-0.478 0.565,-0.457C0.58,-0.44 0.59,-0.42 0.595,-0.399C0.6,-0.378 0.603,-0.353 0.603,-0.326L0.603,-0L0.422,-0L0.422,-0.259C0.422,-0.284 0.42,-0.305 0.416,-0.321C0.413,-0.336 0.406,-0.349 0.397,-0.358C0.389,-0.366 0.38,-0.372 0.37,-0.375C0.36,-0.378 0.349,-0.38 0.338,-0.38C0.307,-0.38 0.284,-0.371 0.268,-0.352C0.251,-0.334 0.243,-0.308 0.243,-0.274L0.243,-0L0.062,-0L0.062,-0.513Z" style="fill:rgb(150,255,0);fill-rule:nonzero;"/>
                </g>
                <g transform="matrix(81.567568,0,0,81.567568,1081.912216,0)">
                    <path d="M0.264,-0.362L0.264,-0L0.083,-0L0.083,-0.362L0.023,-0.362L0.023,-0.513L0.083,-0.513L0.083,-0.667L0.264,-0.667L0.264,-0.513L0.367,-0.513L0.367,-0.362L0.264,-0.362Z" style="fill:rgb(150,255,0);fill-rule:nonzero;"/>
                </g>
            </g>
            <g transform="matrix(1.358904,0,0,1.358904,-98.350042,642.864585)">
                <g transform="matrix(81.567568,0,0,81.567568,896.289323,904.593153)">
                    <path d="M0.473,-0.28L0.683,-0L0.435,-0C0.422,-0.025 0.399,-0.062 0.365,-0.111L0.342,-0.144C0.338,-0.138 0.334,-0.132 0.329,-0.125C0.324,-0.118 0.319,-0.111 0.314,-0.103C0.301,-0.084 0.288,-0.066 0.277,-0.048C0.265,-0.03 0.255,-0.014 0.248,-0L0,-0L0.21,-0.28L0.008,-0.546L0.255,-0.546C0.264,-0.527 0.282,-0.498 0.309,-0.459L0.342,-0.409L0.37,-0.452C0.398,-0.494 0.417,-0.525 0.428,-0.546L0.675,-0.546L0.473,-0.28Z" style="fill:rgb(150,255,0);fill-rule:nonzero;"/>
                </g>
                <g transform="matrix(81.567568,0,0,81.567568,949.960783,904.593153)">
                    <path d="M0.174,-0.605C0.132,-0.605 0.101,-0.615 0.081,-0.636C0.06,-0.657 0.05,-0.684 0.05,-0.717C0.05,-0.75 0.06,-0.777 0.081,-0.798C0.101,-0.819 0.132,-0.83 0.174,-0.83C0.214,-0.83 0.245,-0.819 0.266,-0.797C0.287,-0.776 0.298,-0.749 0.298,-0.717C0.298,-0.684 0.288,-0.657 0.267,-0.636C0.246,-0.615 0.215,-0.605 0.174,-0.605ZM0.058,-0C0.063,-0.107 0.065,-0.196 0.065,-0.266C0.065,-0.349 0.062,-0.443 0.057,-0.546L0.297,-0.546C0.292,-0.447 0.289,-0.353 0.289,-0.266C0.289,-0.193 0.291,-0.104 0.296,-0L0.058,-0Z" style="fill:rgb(150,255,0);fill-rule:nonzero;"/>
                </g>
                <g transform="matrix(81.567568,0,0,81.567568,978.346296,904.593153)">
                    <path d="M0.493,-0.367C0.432,-0.371 0.376,-0.374 0.325,-0.376L0.324,-0.27C0.324,-0.234 0.332,-0.206 0.348,-0.185C0.363,-0.165 0.391,-0.155 0.431,-0.155C0.446,-0.155 0.461,-0.156 0.475,-0.159C0.472,-0.134 0.471,-0.109 0.471,-0.084C0.471,-0.072 0.472,-0.045 0.473,-0.002C0.444,0.003 0.419,0.007 0.399,0.008C0.379,0.009 0.353,0.01 0.321,0.01C0.243,0.01 0.188,-0.009 0.155,-0.046C0.123,-0.084 0.107,-0.137 0.107,-0.204L0.108,-0.373C0.077,-0.372 0.044,-0.37 0.01,-0.367L0.01,-0.544C0.045,-0.544 0.074,-0.555 0.098,-0.577C0.122,-0.599 0.136,-0.625 0.141,-0.656L0.413,-0.656C0.379,-0.609 0.341,-0.572 0.3,-0.544L0.493,-0.544L0.493,-0.367Z" style="fill:rgb(150,255,0);fill-rule:nonzero;"/>
                </g>
                <g transform="matrix(81.567568,0,0,81.567568,1018.151269,904.593153)">
                    <path d="M0.362,0.01C0.248,0.01 0.164,-0.016 0.111,-0.069C0.057,-0.121 0.03,-0.19 0.03,-0.275C0.03,-0.358 0.057,-0.426 0.111,-0.478C0.164,-0.53 0.248,-0.556 0.362,-0.556C0.439,-0.556 0.503,-0.543 0.554,-0.518C0.606,-0.493 0.644,-0.46 0.669,-0.417C0.694,-0.375 0.706,-0.328 0.706,-0.275C0.706,-0.189 0.677,-0.12 0.621,-0.068C0.564,-0.016 0.477,0.01 0.362,0.01ZM0.366,-0.16C0.409,-0.16 0.442,-0.17 0.463,-0.191C0.484,-0.212 0.495,-0.239 0.495,-0.274C0.495,-0.307 0.484,-0.333 0.463,-0.354C0.442,-0.376 0.409,-0.386 0.366,-0.386C0.323,-0.386 0.291,-0.376 0.271,-0.355C0.251,-0.334 0.241,-0.307 0.241,-0.274C0.241,-0.239 0.251,-0.212 0.271,-0.191C0.291,-0.17 0.323,-0.16 0.366,-0.16Z" style="fill:rgb(150,255,0);fill-rule:nonzero;"/>
                </g>
                <g transform="matrix(81.567568,0,0,81.567568,1076.14581,904.593153)">
                    <path d="M0.362,0.01C0.248,0.01 0.164,-0.016 0.111,-0.069C0.057,-0.121 0.03,-0.19 0.03,-0.275C0.03,-0.358 0.057,-0.426 0.111,-0.478C0.164,-0.53 0.248,-0.556 0.362,-0.556C0.439,-0.556 0.503,-0.543 0.554,-0.518C0.606,-0.493 0.644,-0.46 0.669,-0.417C0.694,-0.375 0.706,-0.328 0.706,-0.275C0.706,-0.189 0.677,-0.12 0.621,-0.068C0.564,-0.016 0.477,0.01 0.362,0.01ZM0.366,-0.16C0.409,-0.16 0.442,-0.17 0.463,-0.191C0.484,-0.212 0.495,-0.239 0.495,-0.274C0.495,-0.307 0.484,-0.333 0.463,-0.354C0.442,-0.376 0.409,-0.386 0.366,-0.386C0.323,-0.386 0.291,-0.376 0.271,-0.355C0.251,-0.334 0.241,-0.307 0.241,-0.274C0.241,-0.239 0.251,-0.212 0.271,-0.191C0.291,-0.17 0.323,-0.16 0.366,-0.16Z" style="fill:rgb(150,255,0);fill-rule:nonzero;"/>
                </g>
            </g>
            <g transform="matrix(2.331273,0,0,2.331273,-1493.174736,-220.438331)">
                <g transform="matrix(81.567568,0,0,81.567568,889.281759,967.070791)">
                    <path d="M0.02,-0.385C0.037,-0.411 0.049,-0.441 0.056,-0.473C0.062,-0.505 0.065,-0.554 0.065,-0.62L0.065,-0.655L0.02,-0.685C0.042,-0.705 0.063,-0.732 0.083,-0.763C0.104,-0.795 0.119,-0.825 0.13,-0.854L0.295,-0.845C0.294,-0.837 0.29,-0.825 0.285,-0.81L0.45,-0.81L0.45,-0.729C0.445,-0.72 0.441,-0.713 0.439,-0.71L0.48,-0.71L0.48,-0.671C0.51,-0.683 0.532,-0.698 0.547,-0.715L0.49,-0.715L0.49,-0.819L0.955,-0.819C0.951,-0.743 0.945,-0.691 0.94,-0.665C0.934,-0.638 0.928,-0.621 0.92,-0.614C0.905,-0.601 0.882,-0.595 0.85,-0.595L0.85,-0.58L0.945,-0.58L0.945,-0.49L0.85,-0.49L0.85,-0.47L0.96,-0.47L0.96,-0.37L0.85,-0.37L0.85,-0.325L0.67,-0.325L0.67,-0.37L0.495,-0.37L0.495,-0.47L0.565,-0.47L0.48,-0.491L0.48,-0.435C0.48,-0.396 0.478,-0.369 0.472,-0.354L0.59,-0.354L0.59,-0.305L0.89,-0.305L0.89,-0.11C0.897,-0.096 0.925,-0.034 0.975,0.075L0.81,0.115C0.804,0.101 0.795,0.081 0.783,0.056C0.533,0.071 0.295,0.081 0.07,0.085L0.06,-0.04C0.174,-0.04 0.291,-0.042 0.41,-0.046L0.41,-0.08L0.285,-0.08L0.285,-0.06L0.11,-0.06L0.11,-0.305L0.41,-0.305L0.41,-0.325L0.39,-0.325C0.351,-0.325 0.306,-0.327 0.255,-0.33L0.245,-0.425C0.297,-0.422 0.328,-0.42 0.336,-0.42C0.345,-0.42 0.351,-0.421 0.353,-0.422C0.354,-0.423 0.355,-0.427 0.355,-0.435L0.355,-0.439L0.19,-0.439C0.181,-0.39 0.164,-0.347 0.14,-0.31L0.02,-0.385ZM0.198,-0.515L0.23,-0.515L0.23,-0.54L0.2,-0.54L0.198,-0.515ZM0.2,-0.604L0.23,-0.604L0.23,-0.63L0.2,-0.63L0.2,-0.604ZM0.234,-0.71L0.276,-0.71C0.283,-0.719 0.288,-0.726 0.291,-0.729L0.246,-0.729C0.245,-0.728 0.236,-0.712 0.234,-0.71ZM0.285,-0.175L0.41,-0.175L0.41,-0.2L0.285,-0.2L0.285,-0.175ZM0.325,-0.515L0.355,-0.515L0.355,-0.54L0.325,-0.54L0.325,-0.515ZM0.325,-0.604L0.355,-0.604L0.355,-0.63L0.325,-0.63L0.325,-0.604ZM0.48,-0.545C0.491,-0.559 0.503,-0.577 0.516,-0.599L0.48,-0.632L0.48,-0.545ZM0.589,-0.47L0.67,-0.47L0.67,-0.49L0.605,-0.49C0.602,-0.486 0.597,-0.479 0.589,-0.47ZM0.59,-0.053L0.73,-0.059L0.72,-0.08L0.59,-0.08L0.59,-0.053ZM0.59,-0.175L0.715,-0.175L0.715,-0.2L0.59,-0.2L0.59,-0.175ZM0.623,-0.611L0.675,-0.604C0.674,-0.602 0.663,-0.583 0.662,-0.58L0.685,-0.58L0.685,-0.62L0.716,-0.62L0.705,-0.685L0.745,-0.685C0.757,-0.685 0.764,-0.686 0.765,-0.688C0.767,-0.69 0.768,-0.699 0.77,-0.715L0.714,-0.715C0.698,-0.674 0.668,-0.639 0.623,-0.611Z" style="fill:rgb(150,255,0);fill-rule:nonzero;"/>
                </g>
                <g transform="matrix(81.567568,0,0,81.567568,964.731759,967.070791)">
                    <path d="M0.01,-0.14C0.165,-0.259 0.287,-0.388 0.376,-0.524L0.06,-0.524L0.06,-0.68L0.408,-0.68L0.408,-0.84L0.592,-0.84L0.592,-0.68L0.94,-0.68L0.94,-0.524L0.624,-0.524C0.713,-0.388 0.835,-0.259 0.99,-0.14L0.88,0.005C0.768,-0.09 0.672,-0.192 0.592,-0.303L0.592,0.09L0.408,0.09L0.408,-0.303C0.328,-0.192 0.232,-0.09 0.12,0.005L0.01,-0.14Z" style="fill:rgb(150,255,0);fill-rule:nonzero;"/>
                </g>
                <g transform="matrix(81.567568,0,0,81.567568,1038.14257,967.070791)">
                    <path d="M0.167,-0.214L0.175,-0.805L0.366,-0.804C0.361,-0.589 0.358,-0.415 0.358,-0.281C0.358,-0.224 0.369,-0.183 0.39,-0.157C0.41,-0.132 0.445,-0.119 0.492,-0.119C0.557,-0.119 0.614,-0.142 0.663,-0.188C0.713,-0.233 0.751,-0.298 0.778,-0.383L0.937,-0.252C0.895,-0.153 0.834,-0.074 0.753,-0.016C0.673,0.042 0.584,0.071 0.487,0.071C0.39,0.071 0.313,0.046 0.254,-0.006C0.196,-0.057 0.167,-0.127 0.167,-0.214Z" style="fill:rgb(150,255,0);fill-rule:nonzero;"/>
                </g>
                <g transform="matrix(81.567568,0,0,81.567568,1107.475002,967.070791)">
                    <path d="M0.112,-0.19C0.112,-0.315 0.188,-0.415 0.338,-0.488C0.309,-0.582 0.294,-0.688 0.294,-0.805L0.49,-0.812C0.492,-0.713 0.502,-0.628 0.521,-0.557C0.58,-0.574 0.644,-0.591 0.712,-0.606C0.78,-0.621 0.823,-0.631 0.84,-0.635L0.866,-0.451C0.694,-0.426 0.555,-0.392 0.451,-0.348C0.346,-0.303 0.294,-0.257 0.294,-0.208C0.294,-0.175 0.314,-0.152 0.355,-0.136C0.396,-0.121 0.462,-0.113 0.553,-0.113C0.644,-0.113 0.754,-0.124 0.882,-0.146L0.882,0.043C0.783,0.058 0.682,0.065 0.579,0.065C0.42,0.065 0.303,0.045 0.227,0.003C0.15,-0.039 0.112,-0.103 0.112,-0.19Z" style="fill:rgb(150,255,0);fill-rule:nonzero;"/>
                </g>
                <g transform="matrix(81.567568,0,0,81.567568,1178.846624,967.070791)">
                    <path d="M0.133,0.013C0.083,-0.03 0.059,-0.081 0.059,-0.139C0.059,-0.197 0.08,-0.251 0.124,-0.299C0.167,-0.347 0.224,-0.386 0.296,-0.415L0.296,-0.527L0.099,-0.527L0.099,-0.698L0.297,-0.698L0.297,-0.82L0.467,-0.82L0.467,-0.698L0.647,-0.698L0.647,-0.639L0.721,-0.75C0.812,-0.702 0.903,-0.64 0.992,-0.563L0.897,-0.428C0.826,-0.491 0.743,-0.547 0.647,-0.596L0.647,-0.527L0.467,-0.527L0.467,-0.458C0.496,-0.461 0.523,-0.463 0.549,-0.463C0.66,-0.463 0.747,-0.438 0.811,-0.39C0.875,-0.341 0.907,-0.276 0.907,-0.194C0.907,-0.112 0.879,-0.048 0.822,-0.001C0.766,0.046 0.689,0.069 0.594,0.069C0.582,0.069 0.564,0.069 0.541,0.067L0.487,-0.113C0.532,-0.107 0.567,-0.104 0.593,-0.104C0.685,-0.104 0.73,-0.134 0.73,-0.192C0.73,-0.227 0.715,-0.253 0.685,-0.272C0.654,-0.291 0.61,-0.3 0.552,-0.3C0.527,-0.3 0.499,-0.298 0.467,-0.293L0.467,-0.121C0.467,-0.051 0.455,-0.001 0.431,0.03C0.407,0.062 0.368,0.077 0.313,0.077C0.243,0.077 0.182,0.056 0.133,0.013ZM0.232,-0.152C0.232,-0.138 0.237,-0.125 0.247,-0.114C0.256,-0.102 0.266,-0.097 0.278,-0.097C0.289,-0.097 0.295,-0.106 0.295,-0.125L0.295,-0.234C0.253,-0.208 0.232,-0.181 0.232,-0.152Z" style="fill:rgb(150,255,0);fill-rule:nonzero;"/>
                </g>
            </g>
        </g>
    </g>
</svg>
