<?xml version="1.0" encoding="UTF-8" standalone="no"?>
<!DOCTYPE svg PUBLIC "-//W3C//DTD SVG 1.1//EN" "http://www.w3.org/Graphics/SVG/1.1/DTD/svg11.dtd">
<svg width="100%" height="100%" viewBox="0 0 832 416" version="1.1" xmlns="http://www.w3.org/2000/svg" xmlns:xlink="http://www.w3.org/1999/xlink" xml:space="preserve" xmlns:serif="http://www.serif.com/" style="fill-rule:evenodd;clip-rule:evenodd;stroke-linejoin:round;stroke-miterlimit:2;">
    <g transform="matrix(1,0,0,1,-578.107672,-1641.763048)">
        <g>
            <g transform="matrix(0.999676,0.025453,-0.025453,0.999676,70.299816,-31.825401)">
                <g transform="matrix(1,0,0,1.052632,14,-102.105263)">
                    <rect x="541" y="1674" width="648" height="57" style="fill:rgb(150,255,0);"/>
                </g>
                <g transform="matrix(0.628446,0,0,0.628446,-74.159556,1116.777918)">
                    <g transform="matrix(81.567568,0,0,81.567568,1014.717211,941.979571)">
                        <path d="M0.353,0.042L0.492,0.042C0.502,0.042 0.509,0.038 0.513,0.029L0.828,-0.752C0.83,-0.755 0.83,-0.757 0.83,-0.76C0.83,-0.767 0.824,-0.772 0.815,-0.772L0.619,-0.772C0.609,-0.772 0.601,-0.768 0.598,-0.758L0.426,-0.25L0.251,-0.758C0.247,-0.768 0.24,-0.772 0.23,-0.772L0.031,-0.772C0.022,-0.772 0.015,-0.767 0.015,-0.759C0.015,-0.757 0.016,-0.754 0.017,-0.752L0.333,0.029C0.337,0.038 0.344,0.042 0.353,0.042Z" style="fill:rgb(4,1,3);fill-rule:nonzero;"/>
                    </g>
                    <g transform="matrix(81.567568,0,0,81.567568,1080.215968,941.979571)">
                        <path d="M0.476,0.058C0.718,0.058 0.896,-0.113 0.896,-0.365C0.896,-0.617 0.718,-0.788 0.476,-0.788C0.234,-0.788 0.055,-0.617 0.055,-0.365C0.055,-0.113 0.234,0.058 0.476,0.058ZM0.269,-0.365C0.269,-0.496 0.353,-0.587 0.476,-0.587C0.599,-0.587 0.682,-0.496 0.682,-0.365C0.682,-0.234 0.599,-0.143 0.476,-0.143C0.353,-0.143 0.269,-0.234 0.269,-0.365Z" style="fill:rgb(4,1,3);fill-rule:nonzero;"/>
                    </g>
                    <g transform="matrix(81.567568,0,0,81.567568,1157.949859,941.979571)">
                        <path d="M0.467,0.058C0.662,0.058 0.798,-0.052 0.846,-0.208C0.848,-0.216 0.844,-0.223 0.833,-0.226L0.664,-0.271C0.654,-0.274 0.648,-0.27 0.643,-0.259C0.613,-0.176 0.549,-0.143 0.468,-0.143C0.35,-0.143 0.269,-0.229 0.269,-0.365C0.269,-0.5 0.349,-0.587 0.468,-0.587C0.538,-0.587 0.59,-0.558 0.623,-0.501C0.627,-0.495 0.633,-0.491 0.639,-0.491C0.641,-0.491 0.643,-0.492 0.645,-0.493L0.815,-0.538C0.823,-0.539 0.828,-0.545 0.828,-0.552C0.828,-0.554 0.827,-0.557 0.826,-0.56C0.769,-0.705 0.645,-0.788 0.468,-0.788C0.232,-0.788 0.055,-0.618 0.055,-0.365C0.055,-0.112 0.22,0.058 0.467,0.058Z" style="fill:rgb(4,1,3);fill-rule:nonzero;"/>
                    </g>
                    <g transform="matrix(81.567568,0,0,81.567568,1227.526995,941.979571)">
                        <path d="M0.031,0.042L0.213,0.042C0.223,0.042 0.23,0.038 0.233,0.028L0.277,-0.098L0.573,-0.098L0.618,0.028C0.621,0.038 0.628,0.042 0.638,0.042L0.824,0.042C0.833,0.042 0.839,0.037 0.839,0.029C0.839,0.027 0.838,0.025 0.837,0.022L0.517,-0.759C0.513,-0.768 0.507,-0.772 0.497,-0.772L0.357,-0.772C0.348,-0.772 0.34,-0.768 0.337,-0.759L0.017,0.022C0.012,0.033 0.018,0.042 0.031,0.042ZM0.336,-0.266L0.424,-0.517L0.513,-0.266L0.336,-0.266Z" style="fill:rgb(4,1,3);fill-rule:nonzero;"/>
                    </g>
                    <g transform="matrix(81.567568,0,0,81.567568,1297.267265,941.979571)">
                        <path d="M0.096,0.042L0.643,0.042C0.653,0.042 0.66,0.035 0.66,0.024L0.66,-0.138C0.66,-0.148 0.653,-0.154 0.643,-0.154L0.286,-0.154L0.286,-0.754C0.286,-0.765 0.279,-0.772 0.268,-0.772L0.096,-0.772C0.085,-0.772 0.079,-0.765 0.079,-0.754L0.079,0.024C0.079,0.035 0.085,0.042 0.096,0.042Z" style="fill:rgb(4,1,3);fill-rule:nonzero;"/>
                    </g>
                    <g transform="matrix(81.567568,0,0,81.567568,1350.204616,941.979571)">
                        <path d="M0.476,0.058C0.718,0.058 0.896,-0.113 0.896,-0.365C0.896,-0.617 0.718,-0.788 0.476,-0.788C0.234,-0.788 0.055,-0.617 0.055,-0.365C0.055,-0.113 0.234,0.058 0.476,0.058ZM0.269,-0.365C0.269,-0.496 0.353,-0.587 0.476,-0.587C0.599,-0.587 0.682,-0.496 0.682,-0.365C0.682,-0.234 0.599,-0.143 0.476,-0.143C0.353,-0.143 0.269,-0.234 0.269,-0.365Z" style="fill:rgb(4,1,3);fill-rule:nonzero;"/>
                    </g>
                    <g transform="matrix(81.567568,0,0,81.567568,1427.938508,941.979571)">
                        <path d="M0.096,0.042L0.268,0.042C0.279,0.042 0.286,0.035 0.286,0.024L0.286,-0.754C0.286,-0.765 0.279,-0.772 0.268,-0.772L0.096,-0.772C0.085,-0.772 0.079,-0.765 0.079,-0.754L0.079,0.024C0.079,0.035 0.085,0.042 0.096,0.042Z" style="fill:rgb(4,1,3);fill-rule:nonzero;"/>
                    </g>
                    <g transform="matrix(81.567568,0,0,81.567568,1457.71067,941.979571)">
                        <path d="M0.096,0.042L0.397,0.042C0.66,0.042 0.81,-0.103 0.81,-0.365C0.81,-0.629 0.66,-0.772 0.397,-0.772L0.096,-0.772C0.085,-0.772 0.079,-0.765 0.079,-0.754L0.079,0.024C0.079,0.035 0.085,0.042 0.096,0.042ZM0.377,-0.149L0.283,-0.149L0.283,-0.581L0.377,-0.581C0.521,-0.581 0.599,-0.51 0.599,-0.365C0.599,-0.22 0.521,-0.149 0.377,-0.149Z" style="fill:rgb(4,1,3);fill-rule:nonzero;"/>
                    </g>
                    <g transform="matrix(81.567568,0,0,81.567568,1584.711373,941.979571)">
                        <path d="M0.096,0.042L0.265,0.042C0.276,0.042 0.283,0.035 0.283,0.024L0.283,-0.175L0.368,-0.175C0.593,-0.175 0.71,-0.279 0.71,-0.474C0.71,-0.67 0.593,-0.772 0.368,-0.772L0.096,-0.772C0.085,-0.772 0.079,-0.765 0.079,-0.754L0.079,0.024C0.079,0.035 0.085,0.042 0.096,0.042ZM0.363,-0.348L0.283,-0.348L0.283,-0.599L0.363,-0.599C0.447,-0.599 0.499,-0.565 0.499,-0.476C0.499,-0.383 0.447,-0.348 0.363,-0.348Z" style="fill:rgb(4,1,3);fill-rule:nonzero;"/>
                    </g>
                    <g transform="matrix(81.567568,0,0,81.567568,1646.294886,941.979571)">
                        <path d="M0.082,0.042L0.246,0.042C0.257,0.042 0.264,0.035 0.264,0.024L0.264,-0.245C0.264,-0.332 0.338,-0.369 0.397,-0.369C0.42,-0.369 0.438,-0.366 0.454,-0.364C0.466,-0.362 0.474,-0.367 0.474,-0.378L0.474,-0.53C0.474,-0.54 0.468,-0.547 0.458,-0.55C0.446,-0.554 0.431,-0.555 0.416,-0.555C0.346,-0.555 0.283,-0.529 0.243,-0.47L0.24,-0.53C0.24,-0.541 0.232,-0.547 0.221,-0.547L0.082,-0.547C0.071,-0.547 0.064,-0.54 0.064,-0.53L0.064,0.024C0.064,0.035 0.071,0.042 0.082,0.042Z" style="fill:rgb(4,1,3);fill-rule:nonzero;"/>
                    </g>
                    <g transform="matrix(81.567568,0,0,81.567568,1685.936724,941.979571)">
                        <path d="M0.357,0.053C0.553,0.053 0.68,-0.072 0.68,-0.253C0.68,-0.433 0.553,-0.558 0.357,-0.558C0.161,-0.558 0.034,-0.433 0.034,-0.253C0.034,-0.072 0.161,0.053 0.357,0.053ZM0.236,-0.253C0.236,-0.33 0.285,-0.383 0.357,-0.383C0.429,-0.383 0.478,-0.33 0.478,-0.253C0.478,-0.176 0.429,-0.122 0.357,-0.122C0.285,-0.122 0.236,-0.176 0.236,-0.253Z" style="fill:rgb(4,1,3);fill-rule:nonzero;"/>
                    </g>
                    <g transform="matrix(81.567568,0,0,81.567568,1744.257535,941.979571)">
                        <path d="M0.308,0.053C0.383,0.053 0.442,0.024 0.485,-0.028L0.487,0.024C0.487,0.035 0.495,0.042 0.505,0.042L0.644,0.042C0.655,0.042 0.662,0.035 0.662,0.024L0.662,-0.772C0.662,-0.783 0.655,-0.79 0.644,-0.79L0.48,-0.79C0.469,-0.79 0.462,-0.783 0.462,-0.772L0.462,-0.501C0.423,-0.538 0.37,-0.558 0.308,-0.558C0.144,-0.558 0.034,-0.436 0.034,-0.253C0.034,-0.07 0.144,0.053 0.308,0.053ZM0.236,-0.253C0.236,-0.33 0.285,-0.383 0.357,-0.383C0.429,-0.383 0.478,-0.33 0.478,-0.253C0.478,-0.176 0.429,-0.122 0.357,-0.122C0.285,-0.122 0.236,-0.176 0.236,-0.253Z" style="fill:rgb(4,1,3);fill-rule:nonzero;"/>
                    </g>
                    <g transform="matrix(81.567568,0,0,81.567568,1803.557157,941.979571)">
                        <path d="M0.277,0.053C0.355,0.053 0.419,0.026 0.462,-0.029L0.465,0.024C0.465,0.036 0.472,0.042 0.484,0.042L0.622,0.042C0.633,0.042 0.64,0.035 0.64,0.024L0.64,-0.53C0.64,-0.54 0.633,-0.547 0.622,-0.547L0.458,-0.547C0.447,-0.547 0.44,-0.54 0.44,-0.53L0.44,-0.252C0.44,-0.165 0.4,-0.122 0.343,-0.122C0.285,-0.122 0.26,-0.155 0.26,-0.237L0.26,-0.53C0.26,-0.54 0.253,-0.547 0.242,-0.547L0.078,-0.547C0.067,-0.547 0.06,-0.54 0.06,-0.53L0.06,-0.163C0.06,-0.029 0.139,0.053 0.277,0.053Z" style="fill:rgb(4,1,3);fill-rule:nonzero;"/>
                    </g>
                    <g transform="matrix(81.567568,0,0,81.567568,1861.062292,941.979571)">
                        <path d="M0.339,0.053C0.472,0.053 0.584,-0.007 0.63,-0.133C0.631,-0.136 0.632,-0.138 0.632,-0.141C0.632,-0.148 0.627,-0.154 0.619,-0.155L0.469,-0.193C0.459,-0.195 0.452,-0.191 0.447,-0.181C0.428,-0.14 0.391,-0.122 0.35,-0.122C0.275,-0.122 0.237,-0.18 0.237,-0.253C0.237,-0.326 0.275,-0.383 0.35,-0.383C0.393,-0.383 0.426,-0.366 0.447,-0.327C0.451,-0.319 0.457,-0.315 0.464,-0.315C0.466,-0.315 0.468,-0.316 0.47,-0.316L0.608,-0.355C0.617,-0.357 0.621,-0.362 0.621,-0.37C0.621,-0.372 0.621,-0.375 0.62,-0.377C0.577,-0.504 0.471,-0.558 0.339,-0.558C0.152,-0.558 0.034,-0.434 0.034,-0.253C0.034,-0.071 0.152,0.053 0.339,0.053Z" style="fill:rgb(4,1,3);fill-rule:nonzero;"/>
                    </g>
                    <g transform="matrix(81.567568,0,0,81.567568,1914.815319,941.979571)">
                        <path d="M0.343,0.053C0.455,0.053 0.561,0.01 0.615,-0.091C0.617,-0.095 0.618,-0.098 0.618,-0.101C0.618,-0.107 0.614,-0.111 0.607,-0.114L0.465,-0.162C0.456,-0.164 0.448,-0.162 0.441,-0.154C0.42,-0.125 0.387,-0.112 0.344,-0.112C0.288,-0.112 0.251,-0.144 0.236,-0.202L0.615,-0.202C0.627,-0.202 0.633,-0.208 0.634,-0.219C0.645,-0.419 0.539,-0.558 0.343,-0.558C0.155,-0.558 0.034,-0.433 0.034,-0.253C0.034,-0.072 0.155,0.053 0.343,0.053ZM0.438,-0.311L0.236,-0.311C0.248,-0.371 0.285,-0.402 0.34,-0.402C0.393,-0.402 0.427,-0.369 0.438,-0.311Z" style="fill:rgb(4,1,3);fill-rule:nonzero;"/>
                    </g>
                    <g transform="matrix(81.567568,0,0,81.567568,1969.139319,941.979571)">
                        <path d="M0.082,0.042L0.246,0.042C0.257,0.042 0.264,0.035 0.264,0.024L0.264,-0.245C0.264,-0.332 0.338,-0.369 0.397,-0.369C0.42,-0.369 0.438,-0.366 0.454,-0.364C0.466,-0.362 0.474,-0.367 0.474,-0.378L0.474,-0.53C0.474,-0.54 0.468,-0.547 0.458,-0.55C0.446,-0.554 0.431,-0.555 0.416,-0.555C0.346,-0.555 0.283,-0.529 0.243,-0.47L0.24,-0.53C0.24,-0.541 0.232,-0.547 0.221,-0.547L0.082,-0.547C0.071,-0.547 0.064,-0.54 0.064,-0.53L0.064,0.024C0.064,0.035 0.071,0.042 0.082,0.042Z" style="fill:rgb(4,1,3);fill-rule:nonzero;"/>
                    </g>
                </g>
            </g>
            <g transform="matrix(1.117153,0.035123,-0.035123,1.117153,52.219886,-233.827848)">
                <g transform="matrix(0.524691,0,0,1.052632,271.141975,34.497981)">
                    <rect x="541" y="1674" width="648" height="57" style="fill:rgb(150,255,0);"/>
                </g>
                <g transform="matrix(0.628446,0,0,0.628446,-74.429914,1203.073313)">
                    <g transform="matrix(81.567568,0,0,81.567568,1013.548624,1023.947562)">
                        <path d="M0.096,0.042L0.268,0.042C0.279,0.042 0.286,0.035 0.286,0.024L0.286,-0.754C0.286,-0.765 0.279,-0.772 0.268,-0.772L0.096,-0.772C0.085,-0.772 0.079,-0.765 0.079,-0.754L0.079,0.024C0.079,0.035 0.085,0.042 0.096,0.042Z" style="fill:rgb(4,1,3);fill-rule:nonzero;"/>
                    </g>
                    <g transform="matrix(81.567568,0,0,81.567568,1043.320787,1023.947562)">
                        <path d="M0.082,0.042L0.246,0.042C0.257,0.042 0.264,0.035 0.264,0.024L0.264,-0.772C0.264,-0.783 0.257,-0.79 0.246,-0.79L0.082,-0.79C0.071,-0.79 0.064,-0.783 0.064,-0.772L0.064,0.024C0.064,0.035 0.071,0.042 0.082,0.042Z" style="fill:rgb(4,1,3);fill-rule:nonzero;"/>
                    </g>
                    <g transform="matrix(81.567568,0,0,81.567568,1070.156516,1023.947562)">
                        <path d="M0.082,0.042L0.246,0.042C0.257,0.042 0.264,0.035 0.264,0.024L0.264,-0.772C0.264,-0.783 0.257,-0.79 0.246,-0.79L0.082,-0.79C0.071,-0.79 0.064,-0.783 0.064,-0.772L0.064,0.024C0.064,0.035 0.071,0.042 0.082,0.042Z" style="fill:rgb(4,1,3);fill-rule:nonzero;"/>
                    </g>
                    <g transform="matrix(81.567568,0,0,81.567568,1096.992246,1023.947562)">
                        <path d="M0.277,0.053C0.355,0.053 0.419,0.026 0.462,-0.029L0.465,0.024C0.465,0.036 0.472,0.042 0.484,0.042L0.622,0.042C0.633,0.042 0.64,0.035 0.64,0.024L0.64,-0.53C0.64,-0.54 0.633,-0.547 0.622,-0.547L0.458,-0.547C0.447,-0.547 0.44,-0.54 0.44,-0.53L0.44,-0.252C0.44,-0.165 0.4,-0.122 0.343,-0.122C0.285,-0.122 0.26,-0.155 0.26,-0.237L0.26,-0.53C0.26,-0.54 0.253,-0.547 0.242,-0.547L0.078,-0.547C0.067,-0.547 0.06,-0.54 0.06,-0.53L0.06,-0.163C0.06,-0.029 0.139,0.053 0.277,0.053Z" style="fill:rgb(4,1,3);fill-rule:nonzero;"/>
                    </g>
                    <g transform="matrix(81.567568,0,0,81.567568,1154.497381,1023.947562)">
                        <path d="M0.285,0.053C0.433,0.053 0.539,-0.02 0.539,-0.133C0.539,-0.234 0.489,-0.294 0.334,-0.333L0.313,-0.338C0.268,-0.349 0.247,-0.363 0.247,-0.383C0.247,-0.404 0.267,-0.413 0.294,-0.413C0.329,-0.413 0.35,-0.398 0.367,-0.371C0.371,-0.363 0.376,-0.359 0.384,-0.359L0.388,-0.359L0.517,-0.389C0.526,-0.391 0.531,-0.396 0.531,-0.403C0.531,-0.405 0.53,-0.407 0.529,-0.41C0.492,-0.511 0.411,-0.558 0.286,-0.558C0.143,-0.558 0.044,-0.483 0.044,-0.376C0.044,-0.286 0.098,-0.211 0.251,-0.171L0.273,-0.165C0.322,-0.152 0.335,-0.14 0.335,-0.123C0.335,-0.102 0.313,-0.092 0.278,-0.092C0.241,-0.092 0.208,-0.107 0.189,-0.139C0.184,-0.146 0.179,-0.15 0.172,-0.15C0.17,-0.15 0.168,-0.149 0.166,-0.149L0.033,-0.121C0.025,-0.119 0.02,-0.114 0.02,-0.108C0.02,-0.106 0.02,-0.103 0.021,-0.101C0.059,-0.001 0.152,0.053 0.285,0.053Z" style="fill:rgb(4,1,3);fill-rule:nonzero;"/>
                    </g>
                    <g transform="matrix(81.567568,0,0,81.567568,1202.132841,1023.947562)">
                        <path d="M0.306,0.053C0.384,0.053 0.467,0.019 0.509,-0.066C0.511,-0.07 0.513,-0.075 0.513,-0.078C0.513,-0.085 0.509,-0.09 0.502,-0.093L0.39,-0.141C0.386,-0.143 0.383,-0.144 0.38,-0.144C0.375,-0.144 0.372,-0.141 0.368,-0.137C0.358,-0.121 0.349,-0.115 0.336,-0.115C0.305,-0.115 0.292,-0.139 0.292,-0.189L0.292,-0.376L0.409,-0.376C0.42,-0.376 0.427,-0.383 0.427,-0.394L0.427,-0.527C0.427,-0.537 0.42,-0.545 0.409,-0.545L0.292,-0.545L0.292,-0.683C0.292,-0.694 0.285,-0.701 0.274,-0.701L0.11,-0.701C0.099,-0.701 0.092,-0.694 0.092,-0.683L0.092,-0.545L0.022,-0.545C0.011,-0.545 0.004,-0.537 0.004,-0.527L0.004,-0.394C0.004,-0.383 0.011,-0.376 0.022,-0.376L0.092,-0.376L0.092,-0.208C0.092,-0.039 0.157,0.053 0.306,0.053Z" style="fill:rgb(4,1,3);fill-rule:nonzero;"/>
                    </g>
                    <g transform="matrix(81.567568,0,0,81.567568,1243.895435,1023.947562)">
                        <path d="M0.082,0.042L0.246,0.042C0.257,0.042 0.264,0.035 0.264,0.024L0.264,-0.245C0.264,-0.332 0.338,-0.369 0.397,-0.369C0.42,-0.369 0.438,-0.366 0.454,-0.364C0.466,-0.362 0.474,-0.367 0.474,-0.378L0.474,-0.53C0.474,-0.54 0.468,-0.547 0.458,-0.55C0.446,-0.554 0.431,-0.555 0.416,-0.555C0.346,-0.555 0.283,-0.529 0.243,-0.47L0.24,-0.53C0.24,-0.541 0.232,-0.547 0.221,-0.547L0.082,-0.547C0.071,-0.547 0.064,-0.54 0.064,-0.53L0.064,0.024C0.064,0.035 0.071,0.042 0.082,0.042Z" style="fill:rgb(4,1,3);fill-rule:nonzero;"/>
                    </g>
                    <g transform="matrix(81.567568,0,0,81.567568,1283.537273,1023.947562)">
                        <path d="M0.308,0.053C0.383,0.053 0.442,0.024 0.485,-0.028L0.487,0.024C0.487,0.035 0.495,0.042 0.505,0.042L0.644,0.042C0.655,0.042 0.662,0.035 0.662,0.024L0.662,-0.53C0.662,-0.54 0.655,-0.547 0.644,-0.547L0.505,-0.547C0.495,-0.547 0.487,-0.541 0.487,-0.53L0.485,-0.478C0.442,-0.529 0.383,-0.558 0.308,-0.558C0.144,-0.558 0.034,-0.436 0.034,-0.253C0.034,-0.07 0.144,0.053 0.308,0.053ZM0.236,-0.253C0.236,-0.33 0.285,-0.383 0.357,-0.383C0.429,-0.383 0.478,-0.33 0.478,-0.253C0.478,-0.176 0.429,-0.122 0.357,-0.122C0.285,-0.122 0.236,-0.176 0.236,-0.253Z" style="fill:rgb(4,1,3);fill-rule:nonzero;"/>
                    </g>
                    <g transform="matrix(81.567568,0,0,81.567568,1342.836895,1023.947562)">
                        <path d="M0.306,0.053C0.384,0.053 0.467,0.019 0.509,-0.066C0.511,-0.07 0.513,-0.075 0.513,-0.078C0.513,-0.085 0.509,-0.09 0.502,-0.093L0.39,-0.141C0.386,-0.143 0.383,-0.144 0.38,-0.144C0.375,-0.144 0.372,-0.141 0.368,-0.137C0.358,-0.121 0.349,-0.115 0.336,-0.115C0.305,-0.115 0.292,-0.139 0.292,-0.189L0.292,-0.376L0.409,-0.376C0.42,-0.376 0.427,-0.383 0.427,-0.394L0.427,-0.527C0.427,-0.537 0.42,-0.545 0.409,-0.545L0.292,-0.545L0.292,-0.683C0.292,-0.694 0.285,-0.701 0.274,-0.701L0.11,-0.701C0.099,-0.701 0.092,-0.694 0.092,-0.683L0.092,-0.545L0.022,-0.545C0.011,-0.545 0.004,-0.537 0.004,-0.527L0.004,-0.394C0.004,-0.383 0.011,-0.376 0.022,-0.376L0.092,-0.376L0.092,-0.208C0.092,-0.039 0.157,0.053 0.306,0.053Z" style="fill:rgb(4,1,3);fill-rule:nonzero;"/>
                    </g>
                    <g transform="matrix(81.567568,0,0,81.567568,1384.599489,1023.947562)">
                        <path d="M0.164,-0.625C0.226,-0.625 0.274,-0.666 0.274,-0.728C0.274,-0.79 0.226,-0.832 0.164,-0.832C0.102,-0.832 0.054,-0.79 0.054,-0.728C0.054,-0.666 0.102,-0.625 0.164,-0.625ZM0.064,-0.53L0.064,0.024C0.064,0.035 0.071,0.042 0.082,0.042L0.246,0.042C0.257,0.042 0.264,0.035 0.264,0.024L0.264,-0.53C0.264,-0.54 0.257,-0.547 0.246,-0.547L0.082,-0.547C0.071,-0.547 0.064,-0.54 0.064,-0.53Z" style="fill:rgb(4,1,3);fill-rule:nonzero;"/>
                    </g>
                    <g transform="matrix(81.567568,0,0,81.567568,1411.435219,1023.947562)">
                        <path d="M0.357,0.053C0.553,0.053 0.68,-0.072 0.68,-0.253C0.68,-0.433 0.553,-0.558 0.357,-0.558C0.161,-0.558 0.034,-0.433 0.034,-0.253C0.034,-0.072 0.161,0.053 0.357,0.053ZM0.236,-0.253C0.236,-0.33 0.285,-0.383 0.357,-0.383C0.429,-0.383 0.478,-0.33 0.478,-0.253C0.478,-0.176 0.429,-0.122 0.357,-0.122C0.285,-0.122 0.236,-0.176 0.236,-0.253Z" style="fill:rgb(4,1,3);fill-rule:nonzero;"/>
                    </g>
                    <g transform="matrix(81.567568,0,0,81.567568,1469.75603,1023.947562)">
                        <path d="M0.082,0.042L0.246,0.042C0.257,0.042 0.264,0.035 0.264,0.024L0.264,-0.253C0.264,-0.339 0.305,-0.383 0.363,-0.383C0.421,-0.383 0.447,-0.349 0.447,-0.267L0.447,0.024C0.447,0.035 0.454,0.042 0.465,0.042L0.629,0.042C0.64,0.042 0.647,0.035 0.647,0.024L0.647,-0.342C0.647,-0.477 0.568,-0.558 0.428,-0.558C0.35,-0.558 0.285,-0.531 0.242,-0.478L0.24,-0.53C0.24,-0.541 0.232,-0.547 0.221,-0.547L0.082,-0.547C0.071,-0.547 0.064,-0.54 0.064,-0.53L0.064,0.024C0.064,0.035 0.071,0.042 0.082,0.042Z" style="fill:rgb(4,1,3);fill-rule:nonzero;"/>
                    </g>
                </g>
            </g>
            <g transform="matrix(0.999212,-0.039681,0.039681,0.999212,-45.245667,30.431553)">
                <g transform="matrix(1.16821,0,0,1.052632,-77.001543,-28.533469)">
                    <rect x="541" y="1674" width="648" height="57" style="fill:rgb(150,255,0);"/>
                </g>
                <g transform="matrix(0.628446,0,0,0.628446,562.530938,1777.617262)">
                    <g transform="matrix(81.567568,0,0,81.567568,0,0)">
                        <path d="M0.096,0.042L0.268,0.042C0.279,0.042 0.286,0.035 0.286,0.024L0.286,-0.754C0.286,-0.765 0.279,-0.772 0.268,-0.772L0.096,-0.772C0.085,-0.772 0.079,-0.765 0.079,-0.754L0.079,0.024C0.079,0.035 0.085,0.042 0.096,0.042Z" style="fill:rgb(4,1,3);fill-rule:nonzero;"/>
                    </g>
                    <g transform="matrix(81.567568,0,0,81.567568,29.772162,0)">
                        <path d="M0.082,0.042L0.246,0.042C0.257,0.042 0.264,0.035 0.264,0.024L0.264,-0.253C0.264,-0.339 0.305,-0.383 0.363,-0.383C0.421,-0.383 0.447,-0.349 0.447,-0.267L0.447,0.024C0.447,0.035 0.454,0.042 0.465,0.042L0.629,0.042C0.64,0.042 0.647,0.035 0.647,0.024L0.647,-0.342C0.647,-0.477 0.568,-0.558 0.428,-0.558C0.35,-0.558 0.285,-0.531 0.242,-0.478L0.24,-0.53C0.24,-0.541 0.232,-0.547 0.221,-0.547L0.082,-0.547C0.071,-0.547 0.064,-0.54 0.064,-0.53L0.064,0.024C0.064,0.035 0.071,0.042 0.082,0.042Z" style="fill:rgb(4,1,3);fill-rule:nonzero;"/>
                    </g>
                    <g transform="matrix(81.567568,0,0,81.567568,87.440432,0)">
                        <path d="M0.308,0.053C0.383,0.053 0.442,0.024 0.485,-0.028L0.487,0.024C0.487,0.035 0.495,0.042 0.505,0.042L0.644,0.042C0.655,0.042 0.662,0.035 0.662,0.024L0.662,-0.772C0.662,-0.783 0.655,-0.79 0.644,-0.79L0.48,-0.79C0.469,-0.79 0.462,-0.783 0.462,-0.772L0.462,-0.501C0.423,-0.538 0.37,-0.558 0.308,-0.558C0.144,-0.558 0.034,-0.436 0.034,-0.253C0.034,-0.07 0.144,0.053 0.308,0.053ZM0.236,-0.253C0.236,-0.33 0.285,-0.383 0.357,-0.383C0.429,-0.383 0.478,-0.33 0.478,-0.253C0.478,-0.176 0.429,-0.122 0.357,-0.122C0.285,-0.122 0.236,-0.176 0.236,-0.253Z" style="fill:rgb(4,1,3);fill-rule:nonzero;"/>
                    </g>
                    <g transform="matrix(81.567568,0,0,81.567568,146.740054,0)">
                        <path d="M0.164,-0.625C0.226,-0.625 0.274,-0.666 0.274,-0.728C0.274,-0.79 0.226,-0.832 0.164,-0.832C0.102,-0.832 0.054,-0.79 0.054,-0.728C0.054,-0.666 0.102,-0.625 0.164,-0.625ZM0.064,-0.53L0.064,0.024C0.064,0.035 0.071,0.042 0.082,0.042L0.246,0.042C0.257,0.042 0.264,0.035 0.264,0.024L0.264,-0.53C0.264,-0.54 0.257,-0.547 0.246,-0.547L0.082,-0.547C0.071,-0.547 0.064,-0.54 0.064,-0.53Z" style="fill:rgb(4,1,3);fill-rule:nonzero;"/>
                    </g>
                    <g transform="matrix(81.567568,0,0,81.567568,173.575784,0)">
                        <path d="M0.343,0.053C0.455,0.053 0.561,0.01 0.615,-0.091C0.617,-0.095 0.618,-0.098 0.618,-0.101C0.618,-0.107 0.614,-0.111 0.607,-0.114L0.465,-0.162C0.456,-0.164 0.448,-0.162 0.441,-0.154C0.42,-0.125 0.387,-0.112 0.344,-0.112C0.288,-0.112 0.251,-0.144 0.236,-0.202L0.615,-0.202C0.627,-0.202 0.633,-0.208 0.634,-0.219C0.645,-0.419 0.539,-0.558 0.343,-0.558C0.155,-0.558 0.034,-0.433 0.034,-0.253C0.034,-0.072 0.155,0.053 0.343,0.053ZM0.438,-0.311L0.236,-0.311C0.248,-0.371 0.285,-0.402 0.34,-0.402C0.393,-0.402 0.427,-0.369 0.438,-0.311Z" style="fill:rgb(4,1,3);fill-rule:nonzero;"/>
                    </g>
                    <g transform="matrix(81.567568,0,0,81.567568,256.040595,0)">
                        <path d="M0.467,0.058C0.72,0.058 0.857,-0.1 0.857,-0.304L0.857,-0.399C0.857,-0.41 0.849,-0.417 0.84,-0.417L0.492,-0.417C0.481,-0.417 0.475,-0.41 0.475,-0.399L0.475,-0.281C0.475,-0.27 0.481,-0.263 0.492,-0.263L0.649,-0.263C0.638,-0.184 0.568,-0.141 0.474,-0.141C0.352,-0.141 0.269,-0.223 0.269,-0.364C0.269,-0.505 0.349,-0.588 0.474,-0.588C0.539,-0.588 0.597,-0.559 0.629,-0.507C0.633,-0.5 0.638,-0.496 0.645,-0.496C0.647,-0.496 0.649,-0.497 0.651,-0.497L0.821,-0.544C0.829,-0.545 0.834,-0.551 0.834,-0.558C0.834,-0.561 0.833,-0.563 0.832,-0.566C0.777,-0.708 0.648,-0.788 0.47,-0.788C0.233,-0.788 0.055,-0.617 0.055,-0.365C0.055,-0.113 0.221,0.058 0.467,0.058Z" style="fill:rgb(4,1,3);fill-rule:nonzero;"/>
                    </g>
                    <g transform="matrix(81.567568,0,0,81.567568,330.022378,0)">
                        <path d="M0.308,0.053C0.383,0.053 0.442,0.024 0.485,-0.028L0.487,0.024C0.487,0.035 0.495,0.042 0.505,0.042L0.644,0.042C0.655,0.042 0.662,0.035 0.662,0.024L0.662,-0.53C0.662,-0.54 0.655,-0.547 0.644,-0.547L0.505,-0.547C0.495,-0.547 0.487,-0.541 0.487,-0.53L0.485,-0.478C0.442,-0.529 0.383,-0.558 0.308,-0.558C0.144,-0.558 0.034,-0.436 0.034,-0.253C0.034,-0.07 0.144,0.053 0.308,0.053ZM0.236,-0.253C0.236,-0.33 0.285,-0.383 0.357,-0.383C0.429,-0.383 0.478,-0.33 0.478,-0.253C0.478,-0.176 0.429,-0.122 0.357,-0.122C0.285,-0.122 0.236,-0.176 0.236,-0.253Z" style="fill:rgb(4,1,3);fill-rule:nonzero;"/>
                    </g>
                    <g transform="matrix(81.567568,0,0,81.567568,389.322,0)">
                        <path d="M0.082,0.042L0.246,0.042C0.257,0.042 0.264,0.035 0.264,0.024L0.264,-0.253C0.264,-0.339 0.302,-0.383 0.358,-0.383C0.413,-0.383 0.438,-0.349 0.438,-0.267L0.438,0.024C0.438,0.035 0.445,0.042 0.456,0.042L0.62,0.042C0.631,0.042 0.638,0.035 0.638,0.024L0.638,-0.253C0.638,-0.339 0.675,-0.383 0.732,-0.383C0.786,-0.383 0.812,-0.349 0.812,-0.267L0.812,0.024C0.812,0.035 0.82,0.042 0.83,0.042L0.995,0.042C1.005,0.042 1.011,0.035 1.011,0.024L1.011,-0.342C1.011,-0.477 0.933,-0.558 0.797,-0.558C0.716,-0.558 0.649,-0.529 0.607,-0.468C0.571,-0.526 0.508,-0.558 0.424,-0.558C0.347,-0.558 0.285,-0.531 0.243,-0.474L0.24,-0.53C0.24,-0.542 0.233,-0.547 0.222,-0.547L0.082,-0.547C0.071,-0.547 0.064,-0.54 0.064,-0.53L0.064,0.024C0.064,0.035 0.071,0.042 0.082,0.042Z" style="fill:rgb(4,1,3);fill-rule:nonzero;"/>
                    </g>
                    <g transform="matrix(81.567568,0,0,81.567568,476.762432,0)">
                        <path d="M0.343,0.053C0.455,0.053 0.561,0.01 0.615,-0.091C0.617,-0.095 0.618,-0.098 0.618,-0.101C0.618,-0.107 0.614,-0.111 0.607,-0.114L0.465,-0.162C0.456,-0.164 0.448,-0.162 0.441,-0.154C0.42,-0.125 0.387,-0.112 0.344,-0.112C0.288,-0.112 0.251,-0.144 0.236,-0.202L0.615,-0.202C0.627,-0.202 0.633,-0.208 0.634,-0.219C0.645,-0.419 0.539,-0.558 0.343,-0.558C0.155,-0.558 0.034,-0.433 0.034,-0.253C0.034,-0.072 0.155,0.053 0.343,0.053ZM0.438,-0.311L0.236,-0.311C0.248,-0.371 0.285,-0.402 0.34,-0.402C0.393,-0.402 0.427,-0.369 0.438,-0.311Z" style="fill:rgb(4,1,3);fill-rule:nonzero;"/>
                    </g>
                    <g transform="matrix(81.567568,0,0,81.567568,559.227243,0)">
                        <path d="M0.096,0.042L0.397,0.042C0.66,0.042 0.81,-0.103 0.81,-0.365C0.81,-0.629 0.66,-0.772 0.397,-0.772L0.096,-0.772C0.085,-0.772 0.079,-0.765 0.079,-0.754L0.079,0.024C0.079,0.035 0.085,0.042 0.096,0.042ZM0.377,-0.149L0.283,-0.149L0.283,-0.581L0.377,-0.581C0.521,-0.581 0.599,-0.51 0.599,-0.365C0.599,-0.22 0.521,-0.149 0.377,-0.149Z" style="fill:rgb(4,1,3);fill-rule:nonzero;"/>
                    </g>
                    <g transform="matrix(81.567568,0,0,81.567568,629.375351,0)">
                        <path d="M0.343,0.053C0.455,0.053 0.561,0.01 0.615,-0.091C0.617,-0.095 0.618,-0.098 0.618,-0.101C0.618,-0.107 0.614,-0.111 0.607,-0.114L0.465,-0.162C0.456,-0.164 0.448,-0.162 0.441,-0.154C0.42,-0.125 0.387,-0.112 0.344,-0.112C0.288,-0.112 0.251,-0.144 0.236,-0.202L0.615,-0.202C0.627,-0.202 0.633,-0.208 0.634,-0.219C0.645,-0.419 0.539,-0.558 0.343,-0.558C0.155,-0.558 0.034,-0.433 0.034,-0.253C0.034,-0.072 0.155,0.053 0.343,0.053ZM0.438,-0.311L0.236,-0.311C0.248,-0.371 0.285,-0.402 0.34,-0.402C0.393,-0.402 0.427,-0.369 0.438,-0.311Z" style="fill:rgb(4,1,3);fill-rule:nonzero;"/>
                    </g>
                    <g transform="matrix(81.567568,0,0,81.567568,681.170757,0)">
                        <path d="M0.287,0.042L0.393,0.042C0.403,0.042 0.409,0.038 0.413,0.029L0.662,-0.527C0.663,-0.53 0.664,-0.532 0.664,-0.535C0.664,-0.542 0.658,-0.547 0.648,-0.547L0.48,-0.547C0.47,-0.547 0.464,-0.542 0.46,-0.534L0.345,-0.225L0.228,-0.534C0.225,-0.542 0.218,-0.547 0.208,-0.547L0.032,-0.547C0.022,-0.547 0.016,-0.542 0.016,-0.535C0.016,-0.532 0.017,-0.53 0.018,-0.527L0.267,0.029C0.271,0.038 0.277,0.042 0.287,0.042Z" style="fill:rgb(4,1,3);fill-rule:nonzero;"/>
                    </g>
                    <g transform="matrix(81.567568,0,0,81.567568,734.108108,0)">
                        <path d="M0.343,0.053C0.455,0.053 0.561,0.01 0.615,-0.091C0.617,-0.095 0.618,-0.098 0.618,-0.101C0.618,-0.107 0.614,-0.111 0.607,-0.114L0.465,-0.162C0.456,-0.164 0.448,-0.162 0.441,-0.154C0.42,-0.125 0.387,-0.112 0.344,-0.112C0.288,-0.112 0.251,-0.144 0.236,-0.202L0.615,-0.202C0.627,-0.202 0.633,-0.208 0.634,-0.219C0.645,-0.419 0.539,-0.558 0.343,-0.558C0.155,-0.558 0.034,-0.433 0.034,-0.253C0.034,-0.072 0.155,0.053 0.343,0.053ZM0.438,-0.311L0.236,-0.311C0.248,-0.371 0.285,-0.402 0.34,-0.402C0.393,-0.402 0.427,-0.369 0.438,-0.311Z" style="fill:rgb(4,1,3);fill-rule:nonzero;"/>
                    </g>
                    <g transform="matrix(81.567568,0,0,81.567568,788.432108,0)">
                        <path d="M0.082,0.042L0.246,0.042C0.257,0.042 0.264,0.035 0.264,0.024L0.264,-0.772C0.264,-0.783 0.257,-0.79 0.246,-0.79L0.082,-0.79C0.071,-0.79 0.064,-0.783 0.064,-0.772L0.064,0.024C0.064,0.035 0.071,0.042 0.082,0.042Z" style="fill:rgb(4,1,3);fill-rule:nonzero;"/>
                    </g>
                    <g transform="matrix(81.567568,0,0,81.567568,815.267838,0)">
                        <path d="M0.357,0.053C0.553,0.053 0.68,-0.072 0.68,-0.253C0.68,-0.433 0.553,-0.558 0.357,-0.558C0.161,-0.558 0.034,-0.433 0.034,-0.253C0.034,-0.072 0.161,0.053 0.357,0.053ZM0.236,-0.253C0.236,-0.33 0.285,-0.383 0.357,-0.383C0.429,-0.383 0.478,-0.33 0.478,-0.253C0.478,-0.176 0.429,-0.122 0.357,-0.122C0.285,-0.122 0.236,-0.176 0.236,-0.253Z" style="fill:rgb(4,1,3);fill-rule:nonzero;"/>
                    </g>
                    <g transform="matrix(81.567568,0,0,81.567568,873.588649,0)">
                        <path d="M0.082,0.284L0.246,0.284C0.257,0.284 0.264,0.277 0.264,0.266L0.264,-0.003C0.304,0.033 0.356,0.053 0.418,0.053C0.582,0.053 0.692,-0.07 0.692,-0.253C0.692,-0.436 0.582,-0.558 0.418,-0.558C0.344,-0.558 0.284,-0.529 0.242,-0.478L0.24,-0.53C0.24,-0.541 0.232,-0.547 0.221,-0.547L0.082,-0.547C0.071,-0.547 0.064,-0.54 0.064,-0.53L0.064,0.266C0.064,0.277 0.071,0.284 0.082,0.284ZM0.248,-0.253C0.248,-0.33 0.297,-0.383 0.369,-0.383C0.441,-0.383 0.49,-0.33 0.49,-0.253C0.49,-0.176 0.441,-0.122 0.369,-0.122C0.297,-0.122 0.248,-0.176 0.248,-0.253Z" style="fill:rgb(4,1,3);fill-rule:nonzero;"/>
                    </g>
                    <g transform="matrix(81.567568,0,0,81.567568,932.88827,0)">
                        <path d="M0.082,0.042L0.246,0.042C0.257,0.042 0.264,0.035 0.264,0.024L0.264,-0.253C0.264,-0.339 0.302,-0.383 0.358,-0.383C0.413,-0.383 0.438,-0.349 0.438,-0.267L0.438,0.024C0.438,0.035 0.445,0.042 0.456,0.042L0.62,0.042C0.631,0.042 0.638,0.035 0.638,0.024L0.638,-0.253C0.638,-0.339 0.675,-0.383 0.732,-0.383C0.786,-0.383 0.812,-0.349 0.812,-0.267L0.812,0.024C0.812,0.035 0.82,0.042 0.83,0.042L0.995,0.042C1.005,0.042 1.011,0.035 1.011,0.024L1.011,-0.342C1.011,-0.477 0.933,-0.558 0.797,-0.558C0.716,-0.558 0.649,-0.529 0.607,-0.468C0.571,-0.526 0.508,-0.558 0.424,-0.558C0.347,-0.558 0.285,-0.531 0.243,-0.474L0.24,-0.53C0.24,-0.542 0.233,-0.547 0.222,-0.547L0.082,-0.547C0.071,-0.547 0.064,-0.54 0.064,-0.53L0.064,0.024C0.064,0.035 0.071,0.042 0.082,0.042Z" style="fill:rgb(4,1,3);fill-rule:nonzero;"/>
                    </g>
                    <g transform="matrix(81.567568,0,0,81.567568,1020.328703,0)">
                        <path d="M0.343,0.053C0.455,0.053 0.561,0.01 0.615,-0.091C0.617,-0.095 0.618,-0.098 0.618,-0.101C0.618,-0.107 0.614,-0.111 0.607,-0.114L0.465,-0.162C0.456,-0.164 0.448,-0.162 0.441,-0.154C0.42,-0.125 0.387,-0.112 0.344,-0.112C0.288,-0.112 0.251,-0.144 0.236,-0.202L0.615,-0.202C0.627,-0.202 0.633,-0.208 0.634,-0.219C0.645,-0.419 0.539,-0.558 0.343,-0.558C0.155,-0.558 0.034,-0.433 0.034,-0.253C0.034,-0.072 0.155,0.053 0.343,0.053ZM0.438,-0.311L0.236,-0.311C0.248,-0.371 0.285,-0.402 0.34,-0.402C0.393,-0.402 0.427,-0.369 0.438,-0.311Z" style="fill:rgb(4,1,3);fill-rule:nonzero;"/>
                    </g>
                    <g transform="matrix(81.567568,0,0,81.567568,1074.652703,0)">
                        <path d="M0.082,0.042L0.246,0.042C0.257,0.042 0.264,0.035 0.264,0.024L0.264,-0.253C0.264,-0.339 0.305,-0.383 0.363,-0.383C0.421,-0.383 0.447,-0.349 0.447,-0.267L0.447,0.024C0.447,0.035 0.454,0.042 0.465,0.042L0.629,0.042C0.64,0.042 0.647,0.035 0.647,0.024L0.647,-0.342C0.647,-0.477 0.568,-0.558 0.428,-0.558C0.35,-0.558 0.285,-0.531 0.242,-0.478L0.24,-0.53C0.24,-0.541 0.232,-0.547 0.221,-0.547L0.082,-0.547C0.071,-0.547 0.064,-0.54 0.064,-0.53L0.064,0.024C0.064,0.035 0.071,0.042 0.082,0.042Z" style="fill:rgb(4,1,3);fill-rule:nonzero;"/>
                    </g>
                    <g transform="matrix(81.567568,0,0,81.567568,1132.320973,0)">
                        <path d="M0.306,0.053C0.384,0.053 0.467,0.019 0.509,-0.066C0.511,-0.07 0.513,-0.075 0.513,-0.078C0.513,-0.085 0.509,-0.09 0.502,-0.093L0.39,-0.141C0.386,-0.143 0.383,-0.144 0.38,-0.144C0.375,-0.144 0.372,-0.141 0.368,-0.137C0.358,-0.121 0.349,-0.115 0.336,-0.115C0.305,-0.115 0.292,-0.139 0.292,-0.189L0.292,-0.376L0.409,-0.376C0.42,-0.376 0.427,-0.383 0.427,-0.394L0.427,-0.527C0.427,-0.537 0.42,-0.545 0.409,-0.545L0.292,-0.545L0.292,-0.683C0.292,-0.694 0.285,-0.701 0.274,-0.701L0.11,-0.701C0.099,-0.701 0.092,-0.694 0.092,-0.683L0.092,-0.545L0.022,-0.545C0.011,-0.545 0.004,-0.537 0.004,-0.527L0.004,-0.394C0.004,-0.383 0.011,-0.376 0.022,-0.376L0.092,-0.376L0.092,-0.208C0.092,-0.039 0.157,0.053 0.306,0.053Z" style="fill:rgb(4,1,3);fill-rule:nonzero;"/>
                    </g>
                </g>
            </g>
            <g transform="matrix(1.358904,0,0,1.358904,-101.252433,642.864585)">
                <g transform="matrix(81.567568,0,0,81.567568,896.289323,904.593153)">
                    <path d="M0.108,0.025C0.113,0.025 0.117,0.023 0.122,0.018L0.272,-0.193L0.422,0.018C0.425,0.022 0.43,0.025 0.435,0.025L0.509,0.025C0.518,0.025 0.521,0.019 0.516,0.011L0.326,-0.251L0.502,-0.495C0.507,-0.503 0.504,-0.509 0.495,-0.509L0.426,-0.509C0.42,-0.509 0.415,-0.507 0.412,-0.502L0.276,-0.312L0.14,-0.502C0.136,-0.507 0.132,-0.509 0.126,-0.509L0.053,-0.509C0.043,-0.509 0.04,-0.502 0.045,-0.495L0.222,-0.252L0.032,0.011C0.025,0.019 0.03,0.025 0.038,0.025L0.108,0.025Z" style="fill:rgb(150,255,0);fill-rule:nonzero;"/>
                </g>
                <g transform="matrix(81.567568,0,0,81.567568,940.98835,904.593153)">
                    <path d="M0.125,-0.629C0.156,-0.629 0.181,-0.651 0.181,-0.683C0.181,-0.715 0.156,-0.737 0.125,-0.737C0.093,-0.737 0.069,-0.715 0.069,-0.683C0.069,-0.651 0.093,-0.629 0.125,-0.629ZM0.156,0.025C0.163,0.025 0.167,0.021 0.167,0.013L0.167,-0.498C0.167,-0.505 0.163,-0.509 0.156,-0.509L0.094,-0.509C0.087,-0.509 0.082,-0.505 0.082,-0.498L0.082,0.013C0.082,0.021 0.087,0.025 0.094,0.025L0.156,0.025Z" style="fill:rgb(150,255,0);fill-rule:nonzero;"/>
                </g>
                <g transform="matrix(81.567568,0,0,81.567568,961.298674,904.593153)">
                    <path d="M0.267,0.036C0.324,0.036 0.376,0.009 0.41,-0.059C0.414,-0.067 0.412,-0.073 0.406,-0.076L0.358,-0.097C0.352,-0.1 0.347,-0.098 0.344,-0.091C0.328,-0.057 0.304,-0.043 0.275,-0.043C0.222,-0.043 0.198,-0.078 0.198,-0.158L0.198,-0.433L0.346,-0.433C0.352,-0.433 0.356,-0.437 0.356,-0.443L0.356,-0.498C0.356,-0.505 0.352,-0.509 0.346,-0.509L0.198,-0.509L0.198,-0.673C0.198,-0.679 0.193,-0.683 0.186,-0.683L0.124,-0.683C0.117,-0.683 0.113,-0.679 0.113,-0.673L0.113,-0.509L0.019,-0.509C0.013,-0.509 0.008,-0.505 0.008,-0.498L0.008,-0.443C0.008,-0.437 0.013,-0.433 0.019,-0.433L0.113,-0.433L0.113,-0.16C0.113,-0.025 0.171,0.036 0.267,0.036Z" style="fill:rgb(150,255,0);fill-rule:nonzero;"/>
                </g>
                <g transform="matrix(81.567568,0,0,81.567568,995.557053,904.593153)">
                    <path d="M0.315,0.036C0.479,0.036 0.587,-0.082 0.587,-0.242C0.587,-0.403 0.479,-0.519 0.315,-0.519C0.151,-0.519 0.044,-0.403 0.044,-0.242C0.044,-0.082 0.151,0.036 0.315,0.036ZM0.315,-0.043C0.206,-0.043 0.131,-0.123 0.131,-0.242C0.131,-0.361 0.206,-0.441 0.315,-0.441C0.424,-0.441 0.499,-0.361 0.499,-0.242C0.499,-0.123 0.424,-0.043 0.315,-0.043Z" style="fill:rgb(150,255,0);fill-rule:nonzero;"/>
                </g>
                <g transform="matrix(81.567568,0,0,81.567568,1046.94462,904.593153)">
                    <path d="M0.315,0.036C0.479,0.036 0.587,-0.082 0.587,-0.242C0.587,-0.403 0.479,-0.519 0.315,-0.519C0.151,-0.519 0.044,-0.403 0.044,-0.242C0.044,-0.082 0.151,0.036 0.315,0.036ZM0.315,-0.043C0.206,-0.043 0.131,-0.123 0.131,-0.242C0.131,-0.361 0.206,-0.441 0.315,-0.441C0.424,-0.441 0.499,-0.361 0.499,-0.242C0.499,-0.123 0.424,-0.043 0.315,-0.043Z" style="fill:rgb(150,255,0);fill-rule:nonzero;"/>
                </g>
            </g>
            <g transform="matrix(2.17042,0,0,2.17042,-1356.958937,-57.641189)">
                <g transform="matrix(81.567568,0,0,81.567568,891.534426,967.070791)">
                    <path d="M0.169,-0.308C0.183,-0.337 0.193,-0.373 0.198,-0.405L0.356,-0.405L0.356,-0.402C0.356,-0.38 0.344,-0.377 0.282,-0.38C0.275,-0.38 0.265,-0.378 0.265,-0.369C0.265,-0.367 0.266,-0.365 0.267,-0.362L0.287,-0.318C0.291,-0.31 0.296,-0.306 0.306,-0.306C0.351,-0.305 0.386,-0.307 0.413,-0.313C0.412,-0.311 0.411,-0.308 0.411,-0.305L0.411,-0.29L0.115,-0.29C0.105,-0.29 0.099,-0.284 0.099,-0.274L0.099,-0.087C0.099,-0.077 0.105,-0.071 0.115,-0.071L0.411,-0.071L0.411,-0.038L0.389,-0.038L0.346,-0.037C0.247,-0.037 0.148,-0.038 0.049,-0.042L0.048,-0.042C0.036,-0.042 0.034,-0.037 0.034,-0.026L0.05,0.07C0.052,0.08 0.057,0.085 0.067,0.085C0.3,0.085 0.566,0.079 0.806,0.057C0.811,0.064 0.816,0.07 0.82,0.077C0.826,0.085 0.832,0.088 0.842,0.084L0.965,0.039C0.972,0.037 0.976,0.032 0.976,0.027C0.976,0.012 0.887,-0.059 0.872,-0.071L0.883,-0.071C0.893,-0.071 0.899,-0.077 0.899,-0.087L0.899,-0.274C0.899,-0.284 0.893,-0.29 0.883,-0.29L0.581,-0.29L0.581,-0.305C0.581,-0.315 0.575,-0.321 0.565,-0.321L0.439,-0.321C0.484,-0.338 0.498,-0.373 0.498,-0.431L0.498,-0.482L0.594,-0.449L0.535,-0.449C0.525,-0.449 0.519,-0.443 0.519,-0.433L0.519,-0.362C0.519,-0.352 0.525,-0.346 0.535,-0.346L0.682,-0.346L0.682,-0.321C0.682,-0.311 0.688,-0.305 0.698,-0.305L0.825,-0.305C0.835,-0.305 0.841,-0.311 0.841,-0.321L0.841,-0.346L0.956,-0.346C0.966,-0.346 0.972,-0.352 0.972,-0.362L0.972,-0.433C0.972,-0.443 0.966,-0.449 0.956,-0.449L0.841,-0.449L0.841,-0.482L0.937,-0.482C0.947,-0.482 0.953,-0.488 0.953,-0.498L0.953,-0.556C0.953,-0.566 0.947,-0.572 0.937,-0.572L0.841,-0.572L0.841,-0.593C0.841,-0.603 0.835,-0.609 0.825,-0.609L0.698,-0.609C0.688,-0.609 0.682,-0.603 0.682,-0.593L0.682,-0.572L0.65,-0.572C0.65,-0.573 0.65,-0.573 0.651,-0.573L0.651,-0.576C0.652,-0.576 0.652,-0.577 0.652,-0.577C0.655,-0.587 0.65,-0.594 0.639,-0.596L0.626,-0.598C0.686,-0.623 0.721,-0.668 0.735,-0.718L0.798,-0.718L0.798,-0.708C0.795,-0.688 0.779,-0.685 0.739,-0.686C0.729,-0.686 0.723,-0.682 0.723,-0.675C0.723,-0.673 0.724,-0.671 0.725,-0.668L0.741,-0.632C0.744,-0.624 0.75,-0.62 0.76,-0.62C0.903,-0.618 0.948,-0.643 0.952,-0.731C0.953,-0.761 0.952,-0.785 0.952,-0.813C0.952,-0.823 0.946,-0.829 0.936,-0.829L0.526,-0.829C0.516,-0.829 0.51,-0.823 0.51,-0.813L0.51,-0.733C0.51,-0.723 0.516,-0.717 0.526,-0.717L0.594,-0.717C0.582,-0.7 0.56,-0.687 0.524,-0.675C0.517,-0.673 0.513,-0.669 0.513,-0.664C0.513,-0.661 0.515,-0.658 0.52,-0.654L0.592,-0.604L0.565,-0.608C0.555,-0.61 0.549,-0.605 0.546,-0.596C0.537,-0.569 0.522,-0.538 0.498,-0.51L0.498,-0.666C0.498,-0.676 0.492,-0.682 0.482,-0.682L0.436,-0.682C0.447,-0.694 0.457,-0.705 0.465,-0.715C0.47,-0.722 0.472,-0.727 0.472,-0.735L0.472,-0.796C0.472,-0.806 0.466,-0.812 0.456,-0.812L0.284,-0.812L0.289,-0.823C0.293,-0.831 0.288,-0.838 0.276,-0.839L0.157,-0.851C0.147,-0.852 0.142,-0.848 0.138,-0.839C0.119,-0.8 0.077,-0.751 0.026,-0.719C0.02,-0.716 0.017,-0.712 0.017,-0.707C0.017,-0.704 0.018,-0.701 0.021,-0.697L0.066,-0.633L0.066,-0.56C0.066,-0.485 0.059,-0.427 0.029,-0.371C0.024,-0.361 0.027,-0.353 0.037,-0.349L0.148,-0.301C0.157,-0.297 0.165,-0.299 0.169,-0.308ZM0.288,-0.682L0.199,-0.682C0.209,-0.693 0.217,-0.705 0.226,-0.717L0.32,-0.717C0.313,-0.709 0.304,-0.698 0.293,-0.688C0.291,-0.686 0.289,-0.684 0.288,-0.682ZM0.243,-0.566L0.193,-0.566L0.193,-0.605L0.243,-0.605L0.243,-0.566ZM0.371,-0.566L0.32,-0.566L0.32,-0.605L0.371,-0.605L0.371,-0.566ZM0.243,-0.472L0.19,-0.472C0.191,-0.484 0.192,-0.497 0.192,-0.512L0.243,-0.512L0.243,-0.472ZM0.371,-0.472L0.32,-0.472L0.32,-0.512L0.371,-0.512L0.371,-0.472ZM0.631,-0.482L0.682,-0.482L0.682,-0.449L0.605,-0.449C0.612,-0.451 0.628,-0.476 0.631,-0.482ZM0.411,-0.161L0.266,-0.161L0.266,-0.199L0.411,-0.199L0.411,-0.161ZM0.581,-0.199L0.732,-0.199L0.732,-0.161L0.581,-0.161L0.581,-0.199ZM0.581,-0.041L0.581,-0.071L0.686,-0.071C0.695,-0.064 0.703,-0.055 0.712,-0.047C0.671,-0.045 0.627,-0.043 0.581,-0.041Z" style="fill:rgb(150,255,0);fill-rule:nonzero;"/>
                </g>
                <g transform="matrix(81.567568,0,0,81.567568,973.101993,967.070791)">
                    <path d="M0.055,-0.654L0.055,-0.511C0.055,-0.501 0.061,-0.495 0.071,-0.495L0.355,-0.495C0.264,-0.357 0.152,-0.247 0.026,-0.169C0.021,-0.166 0.018,-0.162 0.018,-0.157C0.018,-0.154 0.02,-0.15 0.022,-0.147L0.126,-0.005C0.13,-0 0.134,0.003 0.139,0.003C0.142,0.003 0.145,0.001 0.148,-0.001C0.247,-0.076 0.34,-0.18 0.411,-0.3L0.4,0.073C0.4,0.083 0.406,0.089 0.416,0.089L0.579,0.089C0.589,0.089 0.595,0.083 0.595,0.073L0.583,-0.311C0.655,-0.194 0.754,-0.083 0.856,-0.005C0.859,-0.002 0.863,-0.001 0.866,-0.001C0.871,-0.001 0.875,-0.003 0.878,-0.008L0.979,-0.152C0.981,-0.155 0.982,-0.158 0.982,-0.161C0.982,-0.166 0.98,-0.17 0.974,-0.174C0.861,-0.248 0.736,-0.364 0.638,-0.495L0.928,-0.495C0.938,-0.495 0.944,-0.501 0.944,-0.511L0.944,-0.654C0.944,-0.664 0.938,-0.67 0.928,-0.67L0.595,-0.67L0.595,-0.835C0.595,-0.845 0.589,-0.851 0.579,-0.851L0.416,-0.851C0.406,-0.851 0.4,-0.845 0.4,-0.835L0.4,-0.67L0.071,-0.67C0.061,-0.67 0.055,-0.664 0.055,-0.654Z" style="fill:rgb(150,255,0);fill-rule:nonzero;"/>
                </g>
                <g transform="matrix(81.567568,0,0,81.567568,1054.669561,967.070791)">
                    <path d="M0.784,-0.07C0.832,-0.136 0.857,-0.195 0.879,-0.277C0.882,-0.288 0.879,-0.297 0.87,-0.303L0.736,-0.39C0.732,-0.393 0.728,-0.394 0.725,-0.394C0.718,-0.394 0.713,-0.389 0.711,-0.379C0.693,-0.282 0.672,-0.225 0.633,-0.182C0.596,-0.141 0.536,-0.115 0.482,-0.115C0.413,-0.115 0.352,-0.155 0.349,-0.256C0.345,-0.391 0.358,-0.591 0.37,-0.777C0.371,-0.79 0.365,-0.797 0.352,-0.797L0.194,-0.801C0.181,-0.801 0.174,-0.795 0.174,-0.782C0.168,-0.597 0.153,-0.352 0.159,-0.214C0.168,-0.011 0.314,0.071 0.468,0.071C0.592,0.071 0.721,0.017 0.784,-0.07Z" style="fill:rgb(150,255,0);fill-rule:nonzero;"/>
                </g>
                <g transform="matrix(81.567568,0,0,81.567568,1121.962804,967.070791)">
                    <path d="M0.834,0.036C0.846,0.034 0.852,0.028 0.852,0.016L0.855,-0.134C0.855,-0.145 0.85,-0.15 0.84,-0.15L0.835,-0.15C0.746,-0.135 0.625,-0.12 0.525,-0.12C0.463,-0.12 0.408,-0.126 0.375,-0.141C0.352,-0.152 0.335,-0.175 0.335,-0.203C0.335,-0.244 0.371,-0.295 0.475,-0.336C0.564,-0.371 0.692,-0.4 0.83,-0.422C0.844,-0.424 0.848,-0.433 0.844,-0.445L0.795,-0.59C0.791,-0.601 0.784,-0.605 0.772,-0.603C0.682,-0.586 0.594,-0.566 0.519,-0.544C0.508,-0.613 0.507,-0.69 0.51,-0.782C0.51,-0.794 0.504,-0.801 0.492,-0.801L0.328,-0.801C0.315,-0.801 0.309,-0.795 0.309,-0.782C0.31,-0.675 0.312,-0.567 0.337,-0.472C0.196,-0.393 0.136,-0.288 0.136,-0.194C0.136,-0.094 0.204,-0.006 0.312,0.028C0.382,0.05 0.463,0.059 0.553,0.059C0.639,0.059 0.734,0.05 0.834,0.036Z" style="fill:rgb(150,255,0);fill-rule:nonzero;"/>
                </g>
                <g transform="matrix(81.567568,0,0,81.567568,1195.373615,967.070791)">
                    <path d="M0.535,0.044C0.563,0.051 0.59,0.054 0.617,0.054C0.705,0.054 0.787,0.02 0.844,-0.047C0.886,-0.097 0.907,-0.156 0.907,-0.215C0.907,-0.347 0.799,-0.474 0.578,-0.474C0.546,-0.474 0.512,-0.471 0.475,-0.465L0.476,-0.531L0.662,-0.532C0.674,-0.532 0.681,-0.539 0.681,-0.551L0.681,-0.642C0.735,-0.589 0.784,-0.522 0.815,-0.457C0.819,-0.449 0.824,-0.445 0.83,-0.445C0.833,-0.445 0.837,-0.446 0.841,-0.449L0.962,-0.528C0.971,-0.534 0.974,-0.543 0.969,-0.553C0.936,-0.621 0.867,-0.697 0.799,-0.754C0.794,-0.758 0.79,-0.76 0.785,-0.76C0.781,-0.76 0.776,-0.758 0.772,-0.755L0.68,-0.688C0.678,-0.696 0.672,-0.701 0.662,-0.701L0.479,-0.7C0.48,-0.735 0.48,-0.769 0.481,-0.801C0.481,-0.813 0.474,-0.82 0.462,-0.82L0.319,-0.82C0.307,-0.82 0.3,-0.813 0.3,-0.801C0.3,-0.769 0.301,-0.734 0.301,-0.699L0.113,-0.698C0.101,-0.698 0.095,-0.692 0.095,-0.679L0.095,-0.548C0.095,-0.536 0.101,-0.529 0.114,-0.529L0.302,-0.53L0.302,-0.423C0.238,-0.396 0.181,-0.358 0.131,-0.302C0.084,-0.249 0.065,-0.198 0.065,-0.152C0.065,-0.03 0.203,0.057 0.319,0.057C0.403,0.057 0.475,0.012 0.474,-0.097L0.474,-0.315C0.513,-0.323 0.546,-0.326 0.575,-0.326C0.687,-0.326 0.733,-0.274 0.733,-0.221C0.733,-0.195 0.722,-0.169 0.702,-0.149C0.683,-0.13 0.648,-0.117 0.603,-0.117C0.579,-0.117 0.552,-0.121 0.524,-0.129C0.51,-0.133 0.501,-0.127 0.503,-0.113L0.518,0.024C0.519,0.035 0.525,0.042 0.535,0.044ZM0.302,-0.255C0.302,-0.21 0.301,-0.17 0.301,-0.135C0.301,-0.119 0.292,-0.112 0.28,-0.112C0.26,-0.112 0.232,-0.133 0.232,-0.162C0.232,-0.196 0.276,-0.237 0.302,-0.255Z" style="fill:rgb(150,255,0);fill-rule:nonzero;"/>
                </g>
            </g>
        </g>
    </g>
</svg>
