<?xml version="1.0" encoding="UTF-8" standalone="no"?>
<!DOCTYPE svg PUBLIC "-//W3C//DTD SVG 1.1//EN" "http://www.w3.org/Graphics/SVG/1.1/DTD/svg11.dtd">
<svg width="100%" height="100%" viewBox="0 0 832 416" version="1.1" xmlns="http://www.w3.org/2000/svg" xmlns:xlink="http://www.w3.org/1999/xlink" xml:space="preserve" xmlns:serif="http://www.serif.com/" style="fill-rule:evenodd;clip-rule:evenodd;stroke-linejoin:round;stroke-miterlimit:2;">
    <g transform="matrix(1,0,0,1,-180.107672,-1641.763048)">
        <g transform="matrix(1,0,0,1,-398,0)">
            <g transform="matrix(0.999676,0.025453,-0.025453,0.999676,70.299816,-31.825401)">
                <g transform="matrix(1,0,0,1.052632,14,-102.105263)">
                    <rect x="541" y="1674" width="648" height="57" style="fill:rgb(4,1,3);"/>
                </g>
                <g transform="matrix(0.628446,0,0,0.628446,-74.159556,1116.777918)">
                    <g transform="matrix(81.567568,0,0,81.567568,2009.107427,941.979571)">
                    </g>
                    <text x="1014.717px" y="941.98px" style="font-family:'LINESeedJP_OTF-ExtraBold', 'LINE Seed JP_OTF', serif;font-weight:800;font-size:81.568px;fill:rgb(150,255,0);">V<tspan x="1080.216px 1157.95px 1227.527px 1297.267px 1350.205px " y="941.98px 941.98px 941.98px 941.98px 941.98px ">OCALO</tspan>ID  Pr<tspan x="1685.937px " y="941.98px ">o</tspan>ducer</text>
                </g>
            </g>
            <g transform="matrix(1.117153,0.035123,-0.035123,1.117153,52.219886,-233.827848)">
                <g transform="matrix(0.524691,0,0,1.052632,271.141975,34.497981)">
                    <rect x="541" y="1674" width="648" height="57" style="fill:rgb(4,1,3);"/>
                </g>
                <g transform="matrix(0.628446,0,0,0.628446,-74.429914,1203.073313)">
                    <g transform="matrix(81.567568,0,0,81.567568,1527.4243,1023.947562)">
                    </g>
                    <text x="1013.549px" y="1023.948px" style="font-family:'LINESeedJP_OTF-ExtraBold', 'LINE Seed JP_OTF', serif;font-weight:800;font-size:81.568px;fill:rgb(150,255,0);">Illus<tspan x="1202.133px 1243.895px 1283.537px " y="1023.948px 1023.948px 1023.948px ">tra</tspan>tion</text>
                </g>
            </g>
            <g transform="matrix(0.999212,-0.039681,0.039681,0.999212,-45.245667,30.431553)">
                <g transform="matrix(1.16821,0,0,1.052632,-77.001543,-28.533469)">
                    <rect x="541" y="1674" width="648" height="57" style="fill:rgb(4,1,3);"/>
                </g>
                <g transform="matrix(0.628446,0,0,0.628446,562.530938,1777.617262)">
                    <g transform="matrix(81.567568,0,0,81.567568,1174.083568,0)">
                    </g>
                    <text x="0px" y="0px" style="font-family:'LINESeedJP_OTF-ExtraBold', 'LINE Seed JP_OTF', serif;font-weight:800;font-size:81.568px;fill:rgb(150,255,0);">Indie G<tspan x="330.022px " y="0px ">a</tspan>me D<tspan x="629.375px 681.171px 734.108px " y="0px 0px 0px ">eve</tspan>lopment</text>
                </g>
            </g>
            <g transform="matrix(1.358904,0,0,1.358904,-101.252433,642.864585)">
                <g transform="matrix(81.567568,0,0,81.567568,1098.332188,904.593153)">
                </g>
                <text x="896.289px" y="904.593px" style="font-family:'LINESeedJP_OTF-Regular', 'LINE Seed JP_OTF', serif;font-size:81.568px;fill:rgb(4,1,3);">xitoo</text>
            </g>
            <g transform="matrix(2.17042,0,0,2.17042,-1356.958937,-57.641189)">
                <g transform="matrix(81.567568,0,0,81.567568,1276.941183,967.070791)">
                </g>
                <text x="891.534px" y="967.071px" style="font-family:'LINESeedJP_OTF-ExtraBold', 'LINE Seed JP_OTF', serif;font-weight:800;font-size:81.568px;fill:rgb(4,1,3);">蟹木し<tspan x="1121.963px 1195.374px " y="967.071px 967.071px ">とお</tspan></text>
            </g>
        </g>
    </g>
</svg>
