<?xml version="1.0" encoding="UTF-8" standalone="no"?>
<!DOCTYPE svg PUBLIC "-//W3C//DTD SVG 1.1//EN" "http://www.w3.org/Graphics/SVG/1.1/DTD/svg11.dtd">
<svg width="100%" height="100%" viewBox="0 0 185 47" version="1.1" xmlns="http://www.w3.org/2000/svg" xmlns:xlink="http://www.w3.org/1999/xlink" xml:space="preserve" xmlns:serif="http://www.serif.com/" style="fill-rule:evenodd;clip-rule:evenodd;stroke-linejoin:round;stroke-miterlimit:2;">
    <g transform="matrix(1,0,0,1,-295,-457)">
        <g transform="matrix(4.527113,0,0,4.527113,-5229.151076,-220.388031)">
            <g transform="matrix(14.137046,0,0,14.137046,1219.658906,159.52829)">
                <path d="M0.743,-0.7L0.743,-0.317C0.743,-0.261 0.733,-0.212 0.714,-0.17C0.694,-0.128 0.668,-0.093 0.636,-0.065C0.603,-0.036 0.567,-0.015 0.525,-0.001C0.484,0.013 0.442,0.02 0.399,0.02C0.356,0.02 0.314,0.013 0.273,-0.001C0.232,-0.015 0.195,-0.036 0.163,-0.065C0.13,-0.093 0.104,-0.128 0.085,-0.17C0.065,-0.212 0.055,-0.261 0.055,-0.317L0.055,-0.7L0.247,-0.7L0.247,-0.33C0.247,-0.299 0.251,-0.273 0.26,-0.25C0.269,-0.227 0.28,-0.208 0.294,-0.193C0.309,-0.178 0.325,-0.166 0.344,-0.159C0.362,-0.151 0.38,-0.147 0.399,-0.147C0.418,-0.147 0.437,-0.151 0.455,-0.159C0.473,-0.166 0.489,-0.178 0.504,-0.193C0.518,-0.208 0.529,-0.227 0.538,-0.25C0.547,-0.273 0.551,-0.299 0.551,-0.33L0.551,-0.521L0.743,-0.7Z" style="fill:rgb(164,15,30);fill-rule:nonzero;"/>
            </g>
            <g transform="matrix(14.137046,0,0,14.137046,1230.940269,159.52829)">
                <path d="M0.035,-0.7L0.723,-0.7L0.723,-0.533L0.48,-0.533L0.48,-0.177L0.288,-0L0.288,-0.533L0.035,-0.533L0.035,-0.7Z" style="fill:rgb(164,15,30);fill-rule:nonzero;"/>
            </g>
            <g transform="matrix(14.137046,0,0,14.137046,1239.493181,159.52829)">
                <path d="M0.137,-0.366L0.433,-0.366L0.339,-0.7L0.538,-0.7L0.735,-0L0.535,-0L0.479,-0.199L0.29,-0.199L0.234,-0L0.035,-0L0.137,-0.366Z" style="fill:rgb(164,15,30);fill-rule:nonzero;"/>
            </g>
            <g transform="matrix(14.137046,0,0,14.137046,1250.378707,159.52829)">
                <path d="M0.743,-0.7L0.743,-0.317C0.743,-0.261 0.733,-0.212 0.714,-0.17C0.694,-0.128 0.668,-0.093 0.636,-0.065C0.603,-0.036 0.567,-0.015 0.525,-0.001C0.484,0.013 0.442,0.02 0.399,0.02C0.356,0.02 0.314,0.013 0.273,-0.001C0.232,-0.015 0.195,-0.036 0.163,-0.065C0.13,-0.093 0.104,-0.128 0.085,-0.17C0.065,-0.212 0.055,-0.261 0.055,-0.317L0.055,-0.7L0.247,-0.7L0.247,-0.33C0.247,-0.299 0.251,-0.273 0.26,-0.25C0.269,-0.227 0.28,-0.208 0.294,-0.193C0.309,-0.178 0.325,-0.166 0.344,-0.159C0.362,-0.151 0.38,-0.147 0.399,-0.147C0.418,-0.147 0.437,-0.151 0.455,-0.159C0.473,-0.166 0.489,-0.178 0.504,-0.193C0.518,-0.208 0.529,-0.227 0.538,-0.25C0.547,-0.273 0.551,-0.299 0.551,-0.33L0.551,-0.521L0.743,-0.7Z" style="fill:rgb(164,15,30);fill-rule:nonzero;"/>
            </g>
        </g>
    </g>
</svg>
