<?xml version="1.0" encoding="UTF-8" standalone="no"?>
<!DOCTYPE svg PUBLIC "-//W3C//DTD SVG 1.1//EN" "http://www.w3.org/Graphics/SVG/1.1/DTD/svg11.dtd">
<svg width="100%" height="100%" viewBox="0 0 254 49" version="1.1" xmlns="http://www.w3.org/2000/svg" xmlns:xlink="http://www.w3.org/1999/xlink" xml:space="preserve" xmlns:serif="http://www.serif.com/" style="fill-rule:evenodd;clip-rule:evenodd;stroke-linejoin:round;stroke-miterlimit:2;">
    <g transform="matrix(1,0,0,1,-294,-218)">
        <g transform="matrix(4.527113,0,0,4.527113,-5229.151076,-457.316327)">
            <g transform="matrix(14.137046,0,0,14.137046,1219.658906,159.52829)">
                <path d="M0.035,-0.533L0.208,-0.533L0.265,-0.321L0.367,-0.7L0.541,-0.7L0.541,-0.698L0.643,-0.321L0.745,-0.7L0.919,-0.7L0.729,-0L0.556,-0L0.454,-0.379L0.352,-0.002L0.352,-0L0.178,-0L0.035,-0.533Z" style="fill:rgb(164,15,30);fill-rule:nonzero;"/>
            </g>
            <g transform="matrix(14.137046,0,0,14.137046,1233.145648,159.52829)">
                <path d="M0.035,-0.351C0.035,-0.406 0.044,-0.457 0.061,-0.502C0.079,-0.547 0.104,-0.586 0.137,-0.619C0.169,-0.651 0.208,-0.676 0.253,-0.694C0.298,-0.711 0.349,-0.72 0.404,-0.72C0.46,-0.72 0.511,-0.711 0.556,-0.694C0.601,-0.676 0.64,-0.651 0.673,-0.619C0.706,-0.586 0.731,-0.547 0.749,-0.502C0.766,-0.457 0.775,-0.406 0.775,-0.351C0.775,-0.295 0.766,-0.244 0.749,-0.199C0.731,-0.154 0.706,-0.115 0.673,-0.082C0.64,-0.049 0.601,-0.024 0.556,-0.007C0.511,0.011 0.46,0.02 0.404,0.02C0.349,0.02 0.298,0.011 0.253,-0.007C0.208,-0.024 0.169,-0.049 0.137,-0.082C0.104,-0.115 0.079,-0.154 0.061,-0.199C0.044,-0.244 0.035,-0.295 0.035,-0.351ZM0.228,-0.35C0.228,-0.289 0.243,-0.24 0.273,-0.203C0.302,-0.166 0.346,-0.147 0.403,-0.147C0.432,-0.147 0.458,-0.152 0.48,-0.162C0.502,-0.171 0.521,-0.185 0.536,-0.203C0.551,-0.22 0.563,-0.242 0.571,-0.267C0.578,-0.292 0.582,-0.319 0.582,-0.35C0.582,-0.38 0.578,-0.408 0.571,-0.432C0.563,-0.458 0.551,-0.479 0.536,-0.497C0.521,-0.515 0.502,-0.529 0.48,-0.538C0.458,-0.548 0.432,-0.553 0.403,-0.553C0.346,-0.553 0.302,-0.534 0.273,-0.497C0.243,-0.46 0.228,-0.411 0.228,-0.35Z" style="fill:rgb(164,15,30);fill-rule:nonzero;"/>
            </g>
            <g transform="matrix(14.137046,0,0,14.137046,1244.596655,159.52829)">
                <path d="M0.055,-0L0.055,-0.23L0.238,-0.398L0.462,-0.398C0.492,-0.398 0.514,-0.405 0.529,-0.419C0.544,-0.433 0.551,-0.449 0.551,-0.466C0.551,-0.483 0.544,-0.499 0.529,-0.512C0.514,-0.526 0.492,-0.533 0.462,-0.533L0.195,-0.533L0.055,-0.7L0.491,-0.7C0.533,-0.7 0.57,-0.693 0.601,-0.679C0.632,-0.666 0.658,-0.648 0.679,-0.626C0.7,-0.604 0.716,-0.579 0.727,-0.551C0.737,-0.523 0.742,-0.494 0.742,-0.465C0.742,-0.443 0.739,-0.421 0.733,-0.401C0.727,-0.38 0.718,-0.359 0.707,-0.341C0.696,-0.322 0.681,-0.304 0.664,-0.289C0.647,-0.275 0.626,-0.262 0.603,-0.252L0.761,-0L0.569,-0L0.425,-0.231L0.247,-0.231L0.247,-0L0.055,-0Z" style="fill:rgb(164,15,30);fill-rule:nonzero;"/>
            </g>
            <g transform="matrix(14.137046,0,0,14.137046,1255.849744,159.52829)">
                <path d="M0.055,-0L0.055,-0.7L0.248,-0.7L0.248,-0.404L0.488,-0.7L0.703,-0.7L0.477,-0.421L0.741,-0L0.545,-0L0.366,-0.285L0.248,-0.139L0.248,-0L0.055,-0Z" style="fill:rgb(164,15,30);fill-rule:nonzero;"/>
            </g>
            <g transform="matrix(14.137046,0,0,14.137046,1266.820091,159.52829)">
                <path d="M0.369,-0.436C0.421,-0.436 0.465,-0.43 0.501,-0.417C0.537,-0.405 0.566,-0.389 0.589,-0.368C0.611,-0.347 0.627,-0.324 0.638,-0.298C0.648,-0.272 0.653,-0.245 0.653,-0.217C0.653,-0.188 0.648,-0.16 0.637,-0.132C0.626,-0.104 0.608,-0.079 0.583,-0.056C0.558,-0.033 0.526,-0.015 0.486,-0.001C0.446,0.013 0.397,0.02 0.34,0.02C0.312,0.02 0.285,0.017 0.259,0.011C0.233,0.006 0.209,-0.002 0.187,-0.011C0.165,-0.02 0.145,-0.031 0.128,-0.042C0.11,-0.053 0.095,-0.065 0.082,-0.077L0.216,-0.199C0.229,-0.184 0.247,-0.171 0.268,-0.162C0.289,-0.152 0.316,-0.147 0.347,-0.147C0.383,-0.147 0.411,-0.153 0.43,-0.165C0.45,-0.176 0.46,-0.189 0.46,-0.203C0.46,-0.218 0.449,-0.232 0.426,-0.245C0.403,-0.258 0.368,-0.264 0.319,-0.264C0.266,-0.264 0.222,-0.27 0.186,-0.283C0.15,-0.295 0.121,-0.311 0.099,-0.332C0.076,-0.352 0.06,-0.375 0.05,-0.402C0.04,-0.428 0.035,-0.455 0.035,-0.482C0.035,-0.511 0.041,-0.539 0.052,-0.568C0.062,-0.596 0.08,-0.621 0.105,-0.644C0.13,-0.667 0.162,-0.685 0.202,-0.699C0.242,-0.713 0.291,-0.72 0.348,-0.72C0.376,-0.72 0.403,-0.717 0.429,-0.712C0.455,-0.706 0.479,-0.698 0.501,-0.689C0.523,-0.68 0.543,-0.669 0.56,-0.658C0.578,-0.647 0.593,-0.635 0.606,-0.623L0.472,-0.501C0.459,-0.516 0.441,-0.529 0.42,-0.538C0.399,-0.548 0.372,-0.553 0.341,-0.553C0.305,-0.553 0.277,-0.547 0.258,-0.535C0.238,-0.524 0.228,-0.511 0.228,-0.497C0.228,-0.482 0.239,-0.468 0.262,-0.455C0.285,-0.442 0.32,-0.436 0.369,-0.436Z" style="fill:rgb(164,15,30);fill-rule:nonzero;"/>
            </g>
        </g>
    </g>
</svg>
